<?xml version="1.0" encoding="utf-8"?>
<!-- Generator: Adobe Illustrator 21.1.0, SVG Export Plug-In . SVG Version: 6.00 Build 0)  -->
<svg version="1.1" id="Layer_1" xmlns="http://www.w3.org/2000/svg" xmlns:xlink="http://www.w3.org/1999/xlink" x="0px" y="0px"
	 viewBox="0 0 90 24" style="enable-background:new 0 0 90 24;" xml:space="preserve">
<style type="text/css">
	.st0{display:none;}
	.st1{display:inline;}
	.st2{fill:#034EA1;}
	.st3{fill:none;}
	.st4{fill:#F05A22;}
	.st5{fill:none;stroke:#FDE2D1;stroke-width:0.5;stroke-miterlimit:10;}
	.st6{fill:none;stroke:#034EA1;stroke-width:5;stroke-miterlimit:10;}
	.st7{fill:none;stroke:#F05A22;stroke-width:5;stroke-miterlimit:10;}
	.st8{fill:#2483C5;}
	.st9{fill:#F48120;}
	.st10{fill:#EC1B2E;}
</style>
<g id="Layer_1_1_" class="st0">
	<g class="st1">
		<path class="st2" d="M95,47.7c0-11.5-4.6-21.9-12.1-29.5c-0.1-0.1-0.1-0.2-0.2-0.2c-0.1-0.1-0.1-0.1-0.2-0.2
			C74.9,10.3,64.5,5.7,53,5.7s-21.9,4.6-29.5,12.1c-0.1,0.1-0.2,0.1-0.2,0.2c-0.1,0.1-0.1,0.1-0.2,0.2C15.6,25.8,11,36.2,11,47.7
			c0,11.2,4.4,21.8,12.3,29.7l0,0l0,0l0,0c0.4,0.4,0.9,0.6,1.5,0.6c0.5,0,1.1-0.2,1.5-0.6l0.1-0.1l6.4-6.4c0.8-0.8,0.8-2.1,0-2.9
			c-0.8-0.8-2.1-0.8-2.9,0l-5,5c-5.9-6.5-9.2-14.6-9.7-23.3h7c1.1,0,2.1-0.9,2.1-2.1c0-1.1-0.9-2.1-2.1-2.1h-7
			c0.5-8.9,4-17,9.6-23.2l5,5c0.4,0.4,0.9,0.6,1.5,0.6c0.5,0,1.1-0.2,1.5-0.6c0.8-0.8,0.8-2.1,0-2.9l-5-5C34,13.9,42,10.3,50.9,9.9
			v7c0,1.1,0.9,2.1,2.1,2.1c1.1,0,2.1-0.9,2.1-2.1v-7c8.9,0.5,17,4,23.2,9.6l-5,5c-0.8,0.8-0.8,2.1,0,2.9c0.4,0.4,0.9,0.6,1.5,0.6
			c0.5,0,1.1-0.2,1.5-0.6l5-5c5.6,6.2,9.1,14.3,9.6,23.2h-7c-1.1,0-2.1,0.9-2.1,2.1c0,1.1,0.9,2.1,2.1,2.1h7
			C90.3,58.4,87,66.5,81.2,73l-5-5c-0.8-0.8-2.1-0.8-2.9,0c-0.8,0.8-0.8,2.1,0,2.9l6.5,6.5c0.4,0.4,0.9,0.6,1.5,0.6
			c0.3,0,0.5-0.1,0.8-0.2c0.2-0.1,0.5-0.3,0.7-0.5C90.6,69.4,95,58.9,95,47.7"/>
		<rect x="11" y="5.7" class="st3" width="83.9" height="72.6"/>
		<path class="st4" d="M56.2,49.3c-0.6,1.2-1.8,1.9-3.2,1.9c-0.9,0-1.8-0.3-2.6-0.9c-1-1.4-1.2-3-0.5-4.3c0.6-1.2,1.8-1.9,3.2-1.9
			c0.4,0,0.9,0.1,1.3,0.2l0,0h0.1c0.4,0.2,0.8,0.4,1.2,0.6C56.6,46.5,56.8,48,56.2,49.3 M62.5,24c-1.1-0.4-2.3,0.1-2.7,1.1l-6,14.9
			c-0.3,0-0.6,0-0.8,0c-2.9,0-5.5,1.6-6.9,4.2c-1.4,2.7-1,5.9,0.9,8.7c0.2,0.3,0.5,0.5,0.7,0.7c1.6,1.2,3.4,1.8,5.2,1.8
			c2.9,0,5.5-1.6,6.9-4.2c1.4-2.7,1-5.9-0.9-8.7c-0.2-0.3-0.5-0.5-0.7-0.7c-0.2-0.1-0.3-0.2-0.5-0.3l5.9-14.8
			C64.1,25.6,63.5,24.4,62.5,24"/>
	</g>
</g>
<g id="Layer_2" class="st0">
	<g class="st1">
		<path class="st4" d="M54.1,43c0,0.6-0.5,1-1,1s-1-0.5-1-1V14.4c0-0.6,0.5-1,1-1c0.6,0,1,0.5,1,1V43z M53.1,11.4c-1.7,0-3,1.4-3,3
			V43c0,1.7,1.4,3,3,3c1.7,0,3-1.4,3-3V14.4C56.1,12.7,54.8,11.4,53.1,11.4"/>
		<path class="st4" d="M43.2,11.7C44.4,7.2,48.5,4,53.1,4c4.7,0,8.7,3.2,9.9,7.7c0.1,0.5-0.2,1.1-0.7,1.2c-0.1,0-0.2,0-0.3,0
			c-0.4,0-0.8-0.3-1-0.7C60.1,8.6,56.8,6,53,6c-3.7,0-7,2.5-8,6.2c-0.1,0.5-0.7,0.9-1.2,0.7C43.4,12.8,43.1,12.2,43.2,11.7"/>
		<path class="st4" d="M53.1,9.7c-2.5,0-4.5,2-4.5,4.5c0,0.6-0.4,1-1,1c-0.5,0-1-0.4-1-1c0-3.6,2.9-6.5,6.5-6.5s6.5,2.9,6.5,6.5
			c0,0.6-0.4,1-1,1s-1-0.4-1-1C57.6,11.8,55.6,9.7,53.1,9.7"/>
		<path class="st4" d="M78.9,43c0,0.6-0.5,1-1,1s-1-0.5-1-1V14.4c0-0.6,0.5-1,1-1c0.6,0,1,0.5,1,1V43z M77.9,11.4c-1.7,0-3,1.4-3,3
			V43c0,1.7,1.4,3,3,3c1.7,0,3-1.4,3-3V14.4C80.9,12.7,79.5,11.4,77.9,11.4"/>
		<path class="st4" d="M68,11.7C69.1,7.2,73.2,4,77.9,4c4.7,0,8.7,3.2,9.9,7.7c0.1,0.5-0.2,1.1-0.7,1.2c-0.1,0-0.2,0-0.3,0
			c-0.4,0-0.8-0.3-1-0.7c-0.9-3.6-4.2-6.2-8-6.2c-3.7,0-7,2.5-8,6.2c-0.1,0.5-0.7,0.9-1.2,0.7C68.2,12.8,67.8,12.2,68,11.7"/>
		<path class="st4" d="M77.9,9.7c-2.5,0-4.5,2-4.5,4.5c0,0.6-0.4,1-1,1c-0.5,0-1-0.4-1-1c0-3.6,2.9-6.5,6.5-6.5s6.5,2.9,6.5,6.5
			c0,0.6-0.4,1-1,1s-1-0.4-1-1C82.4,11.8,80.4,9.7,77.9,9.7"/>
		<path class="st4" d="M29.7,43c0,0.6-0.5,1-1,1s-1-0.5-1-1V14.4c0-0.6,0.5-1,1-1c0.6,0,1,0.5,1,1V43z M28.7,11.4c-1.7,0-3,1.4-3,3
			V43c0,1.7,1.4,3,3,3s3-1.4,3-3V14.4C31.7,12.7,30.3,11.4,28.7,11.4"/>
		<path class="st4" d="M18.8,11.7C19.9,7.2,24,4,28.7,4s8.7,3.2,9.9,7.7c0.1,0.5-0.2,1.1-0.7,1.2c-0.1,0-0.2,0-0.3,0
			c-0.4,0-0.8-0.3-1-0.7c-0.9-3.6-4.2-6.2-8-6.2c-3.7,0-7,2.5-8,6.2c0,0.5-0.6,0.8-1.1,0.7C19,12.8,18.6,12.2,18.8,11.7"/>
		<path class="st4" d="M28.7,9.7c-2.5,0-4.5,2-4.5,4.5c0,0.6-0.4,1-1,1s-1-0.4-1-1c0-3.6,2.9-6.5,6.5-6.5s6.5,2.9,6.5,6.5
			c0,0.6-0.4,1-1,1s-1-0.4-1-1C33.2,11.8,31.2,9.7,28.7,9.7"/>
		<path class="st2" d="M32.2,65h-0.4c-0.7,0-1.4,0.6-1.4,1.4s0.6,1.4,1.4,1.4h0.4c0.8,0,1.4-0.6,1.4-1.4C33.5,65.6,32.9,65,32.2,65"
			/>
		<path class="st2" d="M74.2,65h-0.4c-0.7,0-1.4,0.6-1.4,1.4s0.6,1.4,1.4,1.4h0.4c0.8,0,1.4-0.6,1.4-1.4S75,65,74.2,65"/>
		<path class="st2" d="M68,65h-0.4c-0.7,0-1.4,0.6-1.4,1.4s0.6,1.4,1.4,1.4H68c0.8,0,1.4-0.6,1.4-1.4S68.8,65,68,65"/>
		<path class="st2" d="M91,69.9c0,1.4-1.1,2.5-2.5,2.5h-71c-1.4,0-2.5-1.1-2.5-2.5v-17c0-1.4,1.1-2.5,2.5-2.5h49.3
			c0.1,0,0.3,0,0.4-0.1h15c0.1,0,0.3,0.1,0.4,0.1h6c1.4,0,2.5,1.1,2.5,2.5L91,69.9L91,69.9z M86.1,77.3H79v-2.2h7.1V77.3z M27,77.3
			h-7.1v-2.2H27V77.3z M88.5,47.7h-1l0,0H65.9l0,0H17.5c-2.9,0-5.2,2.3-5.2,5.2v16.9c0,2.8,2.2,5.1,4.9,5.2v3.6
			c0,0.8,0.6,1.4,1.4,1.4h9.8c0.8,0,1.4-0.6,1.4-1.4V75h46.5v3.6c0,0.8,0.6,1.4,1.4,1.4h9.8c0.8,0,1.4-0.6,1.4-1.4V75
			c2.7-0.2,4.9-2.4,4.9-5.2V52.9C93.7,50.1,91.4,47.7,88.5,47.7"/>
		<path class="st2" d="M38.4,65H38c-0.8,0-1.4,0.6-1.4,1.4s0.6,1.4,1.4,1.4h0.4c0.8,0,1.4-0.6,1.4-1.4C39.7,65.6,39.1,65,38.4,65"/>
		<path class="st2" d="M61.8,65h-0.4c-0.7,0-1.4,0.6-1.4,1.4s0.6,1.4,1.4,1.4h0.4c0.8,0,1.4-0.6,1.4-1.4S62.6,65,61.8,65"/>
		<path class="st2" d="M44.6,65h-0.4c-0.7,0-1.4,0.6-1.4,1.4s0.6,1.4,1.4,1.4h0.4c0.8,0,1.4-0.6,1.4-1.4C45.9,65.6,45.3,65,44.6,65"
			/>
	</g>
</g>
<g id="Layer_3" class="st0">
	<g class="st1">
		<path class="st4" d="M28.5,30.1c0-0.3,0-0.6,0-1c0-13.5,11-24.6,24.6-24.6s24.6,11,24.6,24.6c0,0.3,0,0.6,0,1h3.9c0-0.3,0-0.6,0-1
			C81.4,13.4,68.7,0.7,53,0.7S24.6,13.4,24.6,29.1c0,0.3,0,0.6,0,1H28.5L28.5,30.1z"/>
		<path class="st2" d="M70.9,30.1c0-0.3,0-0.6,0-1c0-9.9-8-17.9-17.9-17.9s-17.9,8-17.9,17.9c0,0.3,0,0.6,0,1H39c0-0.3,0-0.6,0-1
			C38.9,21.3,45.2,15,53,15s14.1,6.3,14.1,14.1c0,0.3,0,0.6,0,1H70.9L70.9,30.1z"/>
		<path class="st2" d="M76.7,45.3H58.6v34c-0.4,0.1-1,0.2-1.8,0.2s-1.5-0.1-1.8-0.2V63h-3.9v16.2c-0.4,0.1-1,0.2-1.8,0.2
			s-1.5-0.1-1.8-0.2v-34H29.3c-0.8,0-1.5-0.7-1.5-1.5s0.7-1.5,1.5-1.5h47.5c0.8,0,1.5,0.7,1.5,1.5C78.3,44.6,77.6,45.3,76.7,45.3
			 M76.7,38.4H29.3c-3,0-5.4,2.4-5.4,5.4s2.4,5.4,5.4,5.4h14.3v30.7c0,2.1,2.2,3.5,5.7,3.5c1.5,0,2.8-0.2,3.8-0.7
			c1,0.5,2.2,0.7,3.8,0.7c3.5,0,5.7-1.3,5.7-3.5V49.1h14.3c3,0,5.4-2.4,5.4-5.4C82.1,40.8,79.7,38.4,76.7,38.4"/>
		<path class="st4" d="M56.7,28.7c0,2-1.6,3.7-3.7,3.7c-2,0-3.7-1.6-3.7-3.7S51,25,53,25S56.7,26.7,56.7,28.7 M45.5,28.7
			c0,4.1,3.4,7.5,7.5,7.5s7.5-3.4,7.5-7.5s-3.4-7.5-7.5-7.5S45.5,24.6,45.5,28.7"/>
	</g>
</g>
<g id="Layer_4" class="st0">
	<g class="st1">
		<path class="st4" d="M72.6,75.8c-0.1,0-9.9,3.3-19.6,3.3c-9.1,0-18.4-2.9-19.5-3.2c-0.7-0.3-2.3-1.1-2.3-1.8v-7.3h43.5V74
			C74.8,74.4,74.8,75.1,72.6,75.8 M74.8,62.5H31.2v-41h43.5v41H74.8z M33.4,8.2C33.5,8.2,43.3,5,53,5c9.1,0,18.5,2.9,19.5,3.2
			c0.7,0.3,2.3,1.1,2.3,1.8v7.3H31.2V10C31.2,9.6,31.2,8.9,33.4,8.2 M74.1,4.3c-0.1,0-0.1-0.1-0.2-0.1C73.5,4,63.3,0.7,53,0.7
			S32.5,4,32.1,4.2C27.9,5.5,27,8,27,10v64c0,3.5,3.4,5,4.9,5.7c0.1,0,0.1,0.1,0.2,0.1c0.4,0.1,10.6,3.5,20.9,3.5s20.5-3.3,20.9-3.5
			C78.1,78.5,79,76,79,74v-9.4V19.4V10C79,6.4,75.6,4.9,74.1,4.3"/>
		<rect x="43.2" y="9.2" class="st2" width="19.6" height="4.3"/>
		<rect x="45.9" y="70.2" class="st2" width="14.3" height="4.3"/>
		<rect x="36.5" y="30.6" class="st2" width="6.7" height="6.7"/>
		<rect x="49.6" y="30.6" class="st2" width="6.7" height="6.7"/>
		<rect x="62.8" y="30.6" class="st2" width="6.7" height="6.7"/>
		<rect x="36.5" y="42.6" class="st2" width="6.7" height="6.7"/>
		<rect x="49.6" y="42.6" class="st2" width="6.7" height="6.7"/>
	</g>
</g>
<g id="Layer_5" class="st0">
	<g class="st1">
		<path class="st4" d="M58.2,59.6L53,46.4l-5.2,13.2C47.8,59.6,58.2,59.6,58.2,59.6z M19.5,49.7c2.4,3.4,7.5-0.2,5.1-3.6
			c-4.1-5.8-6.2-12.7-6.2-19.8s2.1-14,6.2-19.8c2.4-3.4-2.8-7-5.1-3.6c-4.8,6.9-7.4,15-7.4,23.4S14.7,42.8,19.5,49.7 M37.7,15.5
			c2.4-3.4-2.8-7-5.1-3.6c-2.9,4.2-4.5,9.2-4.5,14.3s1.6,10.1,4.5,14.3c2.4,3.4,7.5-0.2,5.1-3.6c-2.2-3.2-3.4-6.9-3.4-10.7
			S35.5,18.7,37.7,15.5 M68.3,37c-2.4,3.4,2.8,7,5.1,3.6c3-4.2,4.5-9.2,4.5-14.3S76.3,16.2,73.4,12c-2.4-3.4-7.5,0.2-5.1,3.6
			c2.2,3.2,3.4,6.9,3.4,10.7S70.5,33.8,68.3,37 M86.5,2.8C84.1-0.6,79,3,81.3,6.4c4.1,5.8,6.2,12.7,6.2,19.8s-2.2,14-6.2,19.8
			c-2.4,3.4,2.8,7,5.1,3.6c4.8-6.9,7.4-15,7.4-23.4S91.3,9.7,86.5,2.8 M53,20.3c3.3,0,6,2.7,6,6c0,2.1-1.1,4-2.8,5.1v5.9L74,82.7
			h-6.7l-2.4-6.2H41.3l-2.4,6.2h-6.7L50,37.3v-5.9c-1.7-1-2.8-2.9-2.8-5.1C47,22.9,49.7,20.3,53,20.3 M43.1,71.6h19.8L60,64.3H46
			L43.1,71.6z"/>
		<path class="st5" d="M58.2,59.6L53,46.4l-5.2,13.2C47.8,59.6,58.2,59.6,58.2,59.6z M53,20.3c3.3,0,6,2.7,6,6c0,2.1-1.1,4-2.8,5.1
			v5.9L74,82.7h-6.7l-2.4-6.2H41.3l-2.4,6.2h-6.7L50,37.3v-5.9c-1.7-1-2.8-2.9-2.8-5.1C47,22.9,49.7,20.3,53,20.3z M43.1,71.6h19.8
			L60,64.3H46L43.1,71.6z"/>
		<path class="st2" d="M58.2,59.6L53,46.4l-5.2,13.2C47.8,59.6,58.2,59.6,58.2,59.6z M53,20.3c3.3,0,6,2.7,6,6c0,2.1-1.1,4-2.8,5.1
			v5.9L74,82.7h-6.7l-2.4-6.2H41.2l-2.4,6.2h-6.7l17.8-45.4v-5.9c-1.7-1-2.8-2.9-2.8-5.1C47,22.9,49.7,20.3,53,20.3 M43.1,71.6h19.8
			L60,64.3H46L43.1,71.6z"/>
	</g>
</g>
<g id="Layer_6" class="st0">
	<g class="st1">
		<path class="st6" d="M37.1,66.1h31.8 M63.7,59.7v6.4H42.3v-6.4"/>
		<path class="st7" d="M42.3,58.3h21.3 M90.6,56.2c0,1.1-1,2-2.1,2h-71c-1.2,0-2.1-0.9-2.1-2V20c0-1.1,1-2,2.1-2h71
			c1.2,0,2.1,0.9,2.1,2V56.2L90.6,56.2z"/>
	</g>
</g>
<g id="Layer_7" class="st0">
	<g class="st1">
		<path class="st4" d="M47.4,60c-3.1,3.1-3.1,8.1,0,11.2s8.1,3.1,11.3,0c3.1-3.1,3.1-8.1,0-11.2C55.5,56.9,50.5,56.9,47.4,60"/>
		<rect x="12.6" y="10.4" class="st3" width="80.8" height="63.3"/>
		<path class="st2" d="M53,42c-6.6,0-12.7,2.6-17.4,7.2c-1.8,1.8-1.8,4.8,0,6.6c1.8,1.8,4.8,1.8,6.6,0c2.9-2.9,6.7-4.5,10.8-4.5
			s7.9,1.6,10.8,4.5c0.9,0.9,2.1,1.4,3.3,1.4s2.4-0.5,3.3-1.4c1.8-1.8,1.8-4.8,0-6.6C65.7,44.6,59.5,42,53,42"/>
		<path class="st4" d="M53,25.7c-10.7,0-20.7,4.1-28.2,11.7c-1.8,1.8-1.8,4.8,0,6.6s4.8,1.8,6.6,0c5.8-5.8,13.4-9,21.6-9
			s15.8,3.2,21.6,9c0.9,0.9,2.1,1.4,3.3,1.4c1.2,0,2.4-0.5,3.3-1.4c1.8-1.8,1.8-4.8,0-6.6C73.7,29.9,63.7,25.7,53,25.7"/>
		<path class="st2" d="M92.1,26.6C81.6,16.1,67.8,10.4,53,10.4s-28.6,5.7-39.1,16.2c-1.8,1.8-1.8,4.8,0,6.6c0.9,0.9,2.1,1.4,3.3,1.4
			c1.2,0,2.4-0.5,3.3-1.4c8.7-8.7,20.2-13.5,32.5-13.5s23.8,4.8,32.5,13.5c1.8,1.8,4.8,1.8,6.6,0C93.9,31.3,93.9,28.4,92.1,26.6"/>
		<rect x="12.6" y="10.4" class="st3" width="80.8" height="41.7"/>
	</g>
</g>
<g id="Layer_8" class="st0">
	<g class="st1">
		<path class="st2" d="M89.1,9.6H22.6v4h66.5V9.6L89.1,9.6z M19.4,20.1V8c0-0.9,0.7-1.6,1.6-1.6h69.7c0.9,0,1.6,0.7,1.6,1.6v45.9
			c0,0.9-0.7,1.6-1.6,1.6H57.5v5.6h10.3c0.9,0,1.6,0.7,1.6,1.6c0,0.9-0.7,1.6-1.6,1.6H55.9l0,0l0,0H44c-0.9,0-1.6-0.7-1.6-1.6
			c0-0.9,0.7-1.6,1.6-1.6h10.3v-5.6H40.7c-0.9,0-1.6-0.7-1.6-1.6c0-0.9,0.7-1.6,1.6-1.6h48.5v-4H42.4c-0.9,0-1.6-0.7-1.6-1.6
			c0-0.9,0.7-1.6,1.6-1.6h46.8V16.8H22.6v3.3"/>
		<path class="st4" d="M20.6,32.6h2c0.9,0,1.6-0.7,1.6-1.6s-0.7-1.6-1.6-1.6h-2c-0.9,0-1.6,0.8-1.6,1.6C19,31.9,19.7,32.6,20.6,32.6
			 M34,26.8H16.9v47.6H34V26.8z M37.2,25.2V76c0,0.9-0.7,1.6-1.6,1.6H15.3c-0.9,0-1.6-0.7-1.6-1.6V25.2c0-0.9,0.7-1.6,1.6-1.6h20.3
			C36.5,23.6,37.2,24.3,37.2,25.2 M28.5,61.7H27v-1.4c0-0.9-0.7-1.6-1.6-1.6s-1.6,0.7-1.6,1.6v1.4h-1.4c-0.9,0-1.6,0.7-1.6,1.6
			s0.7,1.6,1.6,1.6h1.4v1.4c0,0.9,0.7,1.6,1.6,1.6s1.6-0.7,1.6-1.6v-1.4h1.4c0.9,0,1.6-0.7,1.6-1.6C30.1,62.4,29.3,61.7,28.5,61.7"
			/>
		<path class="st2" d="M20.6,43H21c0.9,0,1.6-0.7,1.6-1.6c0-0.9-0.7-1.6-1.6-1.6h-0.4c-0.9,0-1.6,0.7-1.6,1.6S19.7,43,20.6,43
			 M20.6,48.7H21c0.9,0,1.6-0.7,1.6-1.6c0-0.9-0.7-1.6-1.6-1.6h-0.4c-0.9,0-1.6,0.7-1.6,1.6S19.7,48.7,20.6,48.7 M23.6,41.4
			c0,0.9,0.7,1.6,1.6,1.6h0.4c0.9,0,1.6-0.7,1.6-1.6c0-0.9-0.7-1.6-1.6-1.6h-0.4C24.3,39.8,23.6,40.5,23.6,41.4 M20.6,54.3H21
			c0.9,0,1.6-0.7,1.6-1.6c0-0.9-0.7-1.6-1.6-1.6h-0.4c-0.9,0-1.6,0.7-1.6,1.6S19.7,54.3,20.6,54.3 M25.2,54.3h0.4
			c0.9,0,1.6-0.7,1.6-1.6c0-0.9-0.7-1.6-1.6-1.6h-0.4c-0.9,0-1.6,0.7-1.6,1.6C23.6,53.6,24.3,54.3,25.2,54.3 M29.8,43h0.4
			c0.9,0,1.6-0.7,1.6-1.6c0-0.9-0.7-1.6-1.6-1.6h-0.4c-0.9,0-1.6,0.7-1.6,1.6C28.2,42.3,28.9,43,29.8,43 M25.2,48.7h0.4
			c0.9,0,1.6-0.7,1.6-1.6c0-0.9-0.7-1.6-1.6-1.6h-0.4c-0.9,0-1.6,0.7-1.6,1.6C23.6,48,24.3,48.7,25.2,48.7 M29.8,48.7h0.4
			c0.9,0,1.6-0.7,1.6-1.6c0-0.9-0.7-1.6-1.6-1.6h-0.4c-0.9,0-1.6,0.7-1.6,1.6C28.2,48,28.9,48.7,29.8,48.7 M28.2,52.7
			c0-0.9,0.7-1.6,1.6-1.6h0.4c0.9,0,1.6,0.7,1.6,1.6c0,0.9-0.7,1.6-1.6,1.6h-0.4C28.9,54.3,28.2,53.6,28.2,52.7"/>
		<path class="st2" d="M22.6,20.1c0,0.9-0.7,1.6-1.6,1.6s-1.6-0.7-1.6-1.6"/>
	</g>
</g>
<g id="Layer_9" class="st0">
	<g class="st1">
		<path class="st2" d="M91.8,16.5c0,0.7-0.6,1.2-1.3,1.2h-75c-0.7,0-1.3-0.6-1.3-1.2V4.9c0-0.7,0.6-1.2,1.3-1.2h75
			c0.7,0,1.3,0.6,1.3,1.2V16.5z M90.5,1h-75c-2.2,0-3.9,1.7-3.9,3.9v11.7c0,2.1,1.8,3.9,3.9,3.9h75c2.2,0,3.9-1.7,3.9-3.9V4.9
			C94.4,2.7,92.7,1,90.5,1"/>
		<path class="st2" d="M61.8,31.4H21.4c-0.7,0-1.3,0.6-1.3,1.3s0.6,1.3,1.3,1.3h40.4c0.7,0,1.3-0.6,1.3-1.3
			C63.1,32,62.6,31.4,61.8,31.4"/>
		<path class="st2" d="M84.6,34c-0.7,0-1.3-0.6-1.3-1.3s0.6-1.3,1.3-1.3c0.7,0,1.3,0.6,1.3,1.3S85.3,34,84.6,34 M84.6,28.8
			c-2.2,0-4,1.8-4,3.9c0,2.2,1.8,3.9,4,3.9s4-1.8,4-3.9S86.8,28.8,84.6,28.8"/>
		<path class="st2" d="M72.9,34c-0.7,0-1.3-0.6-1.3-1.3s0.6-1.3,1.3-1.3s1.3,0.6,1.3,1.3C74.3,33.4,73.7,34,72.9,34 M72.9,28.8
			c-2.2,0-4,1.8-4,3.9c0,2.2,1.8,3.9,4,3.9c2.2,0,4-1.8,4-3.9S75.1,28.8,72.9,28.8"/>
		<path class="st2" d="M91.8,38.6c0,0.7-0.6,1.2-1.3,1.2h-75c-0.7,0-1.3-0.6-1.3-1.2V26.9c0-0.7,0.6-1.2,1.3-1.2h75
			c0.7,0,1.3,0.6,1.3,1.2V38.6z M90.5,23h-75c-2.2,0-3.9,1.7-3.9,3.9v11.7c0,2.1,1.8,3.9,3.9,3.9h75c2.2,0,3.9-1.7,3.9-3.9V26.9
			C94.4,24.8,92.7,23,90.5,23"/>
		<path class="st2" d="M61.8,53.4H21.4c-0.7,0-1.3,0.6-1.3,1.3s0.6,1.3,1.3,1.3h40.4c0.7,0,1.3-0.6,1.3-1.3
			C63.1,54,62.6,53.4,61.8,53.4"/>
		<path class="st2" d="M84.6,56.1c-0.7,0-1.3-0.6-1.3-1.3s0.6-1.3,1.3-1.3c0.7,0,1.3,0.6,1.3,1.3S85.3,56.1,84.6,56.1 M84.6,50.8
			c-2.2,0-4,1.8-4,3.9c0,2.2,1.8,3.9,4,3.9s4-1.8,4-3.9S86.8,50.8,84.6,50.8"/>
		<path class="st2" d="M72.9,56.1c-0.7,0-1.3-0.6-1.3-1.3s0.6-1.3,1.3-1.3s1.3,0.6,1.3,1.3C74.3,55.5,73.7,56.1,72.9,56.1
			 M72.9,50.8c-2.2,0-4,1.8-4,3.9c0,2.2,1.8,3.9,4,3.9c2.2,0,4-1.8,4-3.9S75.1,50.8,72.9,50.8"/>
		<path class="st2" d="M91.8,60.6c0,0.7-0.6,1.2-1.3,1.2h-75c-0.7,0-1.3-0.6-1.3-1.2V48.9c0-0.7,0.6-1.2,1.3-1.2h75
			c0.7,0,1.3,0.6,1.3,1.2V60.6z M90.5,45h-75c-2.2,0-3.9,1.7-3.9,3.9v11.7c0,2.1,1.8,3.9,3.9,3.9h75c2.2,0,3.9-1.7,3.9-3.9V48.9
			C94.4,46.8,92.7,45,90.5,45"/>
		<path class="st4" d="M93.1,76c0.7,0,1.3-0.6,1.3-1.3c0-0.7-0.6-1.3-1.3-1.3H63.2c-0.1-0.6-0.6-1.1-1.3-1.1h-3.5v-3.9
			c0-0.7-0.6-1.3-1.3-1.3s-1.3,0.6-1.3,1.3v5.2c0,0.7,0.6,1.3,1.3,1.3h3.5v5.5H45.5v-5.5h6.3c0.7,0,1.3-0.6,1.3-1.3
			c0-0.7-0.6-1.3-1.3-1.3h-1.6v-3.9c0-0.7-0.6-1.3-1.3-1.3s-1.3,0.6-1.3,1.3v3.9h-3.5c-0.7,0-1.2,0.5-1.3,1.1H12.9
			c-0.7,0-1.3,0.6-1.3,1.3c0,0.7,0.6,1.3,1.3,1.3h29.9v2.6H12.9c-0.7,0-1.3,0.6-1.3,1.3c0,0.7,0.6,1.3,1.3,1.3h29.9v0.4
			c0,0.7,0.6,1.3,1.3,1.3h17.7c0.7,0,1.3-0.6,1.3-1.3v-0.4H93c0.7,0,1.3-0.6,1.3-1.3c0-0.7-0.6-1.3-1.3-1.3H63.2V76H93.1z"/>
		<path class="st2" d="M61.8,9.4H21.4c-0.7,0-1.3,0.6-1.3,1.3s0.6,1.3,1.3,1.3h40.4c0.7,0,1.3-0.6,1.3-1.3
			C63.1,10,62.6,9.4,61.8,9.4"/>
		<path class="st2" d="M84.6,12c-0.7,0-1.3-0.6-1.3-1.3s0.6-1.3,1.3-1.3c0.7,0,1.3,0.6,1.3,1.3S85.3,12,84.6,12 M84.6,6.8
			c-2.2,0-4,1.8-4,3.9c0,2.2,1.8,3.9,4,3.9s4-1.8,4-3.9C88.6,8.5,86.8,6.8,84.6,6.8"/>
		<path class="st2" d="M72.9,12c-0.7,0-1.3-0.6-1.3-1.3s0.6-1.3,1.3-1.3s1.3,0.6,1.3,1.3C74.3,11.4,73.7,12,72.9,12 M72.9,6.8
			c-2.2,0-4,1.8-4,3.9c0,2.2,1.8,3.9,4,3.9c2.2,0,4-1.8,4-3.9C76.9,8.5,75.1,6.8,72.9,6.8"/>
	</g>
</g>
<g id="Layer_10" class="st0">
	<g class="st1">
		<path class="st2" d="M53,4.6c11.4,0,20.4,6.4,23,16.2h-3C69.3,13.5,61.7,8.6,53,8.6s-16.3,5-20.1,12.2h-3
			C32.6,11.1,41.6,4.6,53,4.6 M79.3,34.6h-3.9c0.2-1.1,0.2-2.2,0.2-3.3c0-2.3-0.3-4.4-1-6.5h4.6L79.3,34.6L79.3,34.6z M74.6,41.4
			h-1.4c0.5-0.9,0.9-1.9,1.2-2.9h0.1L74.6,41.4L74.6,41.4z M53,49.9c-10.3,0-18.7-8.4-18.7-18.7S42.7,12.5,53,12.5
			s18.7,8.4,18.7,18.7c0,3.8-1.1,7.3-3,10.2H51.9c-1.1,0-2,0.9-2,2s0.9,2,2,2h13.3C61.9,48.2,57.7,49.9,53,49.9 M27.1,34.6v-9.8h4.3
			c-0.6,2.1-1,4.2-1,6.5c0,1.1,0.1,2.2,0.2,3.3H27.1z M27,38.5h4.6c3,8.9,11.5,15.4,21.4,15.4c7.1,0,13.5-3.3,17.6-8.5h5.9
			c1.1,0,2-0.9,2-2v-4.9h0.9c2.1,0,3.9-1.7,3.9-3.9v-9.9c0-1.9-1.4-3.5-3.2-3.8C78.8,15,75.6,10,70.9,6.4c-5-3.8-11.1-5.7-17.9-5.7
			C39.3,0.7,28.5,8.8,25.9,21c-1.6,0.5-2.8,2-2.8,3.7v9.9C23.1,36.8,24.9,38.5,27,38.5"/>
		<path class="st4" d="M73.3,54.7H32.7c-6.3,0-11.4,5.1-11.4,11.4v15.2c0,1.1,0.9,2,2,2s2-0.9,2-2V66.1c0-4.1,3.3-7.4,7.4-7.4h40.7
			c4.1,0,7.4,3.3,7.4,7.4v15.2c0,1.1,0.9,2,2,2s2-0.9,2-2V66.1C84.7,59.8,79.6,54.7,73.3,54.7"/>
	</g>
</g>
<g id="Layer_12" class="st0">
	<g class="st1">
		<path class="st2" d="M93.3,33.6c0.5,2.7,0.8,5.5,0.8,8.3c0,3.7-0.5,7.2-1.4,10.6c0,0.1,0,0.1,0,0.2C88.6,67.9,76,79.6,60.4,82.5
			c0,0-0.1,0-0.2,0c-2.4,0.4-4.8,0.6-7.3,0.6c-3,0-6-0.3-8.9-1C43,82,42.4,81,42.6,80c0.2-1,1.2-1.6,2.2-1.4
			c2.7,0.6,5.4,0.9,8.1,0.9c2,0,3.9-0.1,5.8-0.4c1.2-3,2.3-6.9,3.2-11.2c0.2-1,1.2-1.6,2.2-1.4c1,0.2,1.6,1.2,1.4,2.2
			c-0.7,3.6-1.6,6.8-2.5,9.6C74.7,74.9,84.2,66,88.3,54.6c-2.8,0.6-5.7,1.1-8.6,1.5c-1,0.1-1.9-0.5-2.1-1.5c-0.1-1,0.5-1.9,1.5-2.1
			c3.5-0.5,7-1.2,10.3-1.9c0.7-2.8,1-5.7,1-8.7c0-2.5-0.3-5.1-0.8-7.5c-0.2-1,0.4-2,1.4-2.2C92.2,32,93.1,32.6,93.3,33.6 M15.3,41.9
			c0-4.8,0.9-9.4,2.6-13.6c6.5,1.6,13.4,2.7,20.4,3.3c-0.2,3.3-0.3,6.8-0.3,10.3c0,4,0.1,8,0.4,11.9c-7.5-0.6-14.9-1.7-22.1-3.2
			C15.6,47.7,15.3,44.8,15.3,41.9 M42.8,5.6c-2.1,5.9-3.5,13.6-4.3,22.3c-6.6-0.6-13-1.6-19.2-3.1C24.1,15.5,32.6,8.5,42.8,5.6
			 M47.1,4.7c1.9-0.3,3.8-0.4,5.8-0.4s3.9,0.1,5.8,0.4c2.4,5.7,4.1,14,4.9,23.5c-3.5,0.2-7.1,0.4-10.7,0.4c-3.6,0-7.2-0.1-10.7-0.4
			C43,18.7,44.7,10.5,47.1,4.7 M26.8,73.9c0.3,0.3,0.8,0.4,1.2,0.4c0.5,0,1.1-0.2,1.4-0.7c0.6-0.8,0.5-1.9-0.3-2.6
			c-5.4-4.4-9.4-10.1-11.7-16.5c6.9,1.4,14,2.4,21.2,2.9C39,60.8,39.4,64,40,67c0.2,1,1.1,1.7,2.1,1.5s1.7-1.1,1.5-2.1
			c-0.5-2.7-0.9-5.6-1.2-8.6c3,0.2,6,0.3,9,0.3l0,0c1,0,1.8-0.8,1.8-1.8s-0.8-1.8-1.8-1.9c-3.1,0-6.3-0.1-9.4-0.3
			c-0.3-3.9-0.5-8-0.5-12.2c0-3.4,0.1-6.8,0.3-10c3.6,0.2,7.3,0.4,11,0.4c3.7,0,7.4-0.1,11-0.4c0.2,2.7,0.3,5.4,0.3,8.2
			c0,1,0.8,1.8,1.8,1.8l0,0c1,0,1.8-0.8,1.8-1.9c0-2.8-0.1-5.7-0.3-8.4c4.1-0.4,8.1-0.9,12-1.6c1-0.2,1.7-1.1,1.5-2.1
			s-1.1-1.7-2.1-1.5c-3.8,0.7-7.7,1.2-11.7,1.5c-0.8-8.7-2.3-16.4-4.3-22.3c7.7,2.1,14.5,6.6,19.6,13.1c0.6,0.8,1.8,0.9,2.6,0.3
			c0.8-0.6,0.9-1.8,0.3-2.6C77.5,6.4,65.7,0.6,52.9,0.6c-2.5,0-4.9,0.2-7.3,0.6c-0.1,0-0.1,0-0.2,0c-13.6,2.6-24.8,11.7-30.3,24
			c0,0.1-0.1,0.2-0.1,0.3c-2.2,5-3.4,10.6-3.4,16.4C11.6,54.4,17.2,66,26.8,73.9"/>
		<rect x="11.6" y="0.6" class="st3" width="82.8" height="82.8"/>
		<path class="st4" d="M57,65.6C48.4,72.7,39.5,78.2,32.2,81c-3.8,1.4-7.2,2.2-10.1,2.2c-3.3,0-5.9-0.9-7.7-2.8
			c-1.9-1.9-3.8-5.6-2.2-12.6c0.2-1,1.2-1.6,2.2-1.4s1.6,1.2,1.4,2.2c-0.7,3-1,7,1.2,9.2c2.4,2.4,7.3,2.3,13.9-0.2
			c7-2.7,15.5-7.9,23.8-14.8c0.8-0.6,1.9-0.5,2.6,0.2C57.9,63.8,57.8,64.9,57,65.6"/>
		<path class="st4" d="M65.6,58.9c-2.6,0-4.7-2.1-4.7-4.7c0-2.6,2.1-4.7,4.7-4.7c2.6,0,4.7,2.1,4.7,4.7
			C70.3,56.8,68.2,58.9,65.6,58.9 M79.5,4.8c3-0.7,7.1-1,9.3,1.2c2.6,2.6,2.2,8.4-1.1,16c-3.3,7.7-9.4,16.7-17.2,25.4
			c-1.4-1-3.1-1.6-5-1.6c-4.6,0-8.4,3.8-8.4,8.4s3.8,8.4,8.4,8.4s8.4-3.8,8.4-8.4c0-1.4-0.4-2.8-1-4c8.2-9.1,14.6-18.6,18.1-26.8
			c4-9.3,4.1-16.2,0.3-20c-1.9-1.9-5.6-3.8-12.7-2.2c-1,0.2-1.6,1.2-1.4,2.2C77.5,4.4,78.5,5,79.5,4.8"/>
	</g>
</g>
<g id="Layer_13" class="st0">
	<g class="st1">
		<path class="st2" d="M82,38H69.7V11.3c0-1.1-0.9-2.1-2.1-2.1H55.1V0.8H51v8.5H38.3c-1.1,0-2.1,0.9-2.1,2.1v35.2H24
			c-1.1,0-2.1,0.9-2.1,2.1v34.7H26V50.6h12.2c1.1,0,2.1-0.9,2.1-2.1V13.4h25.2v26.7c0,1.1,0.9,2.1,2.1,2.1h12.2v41.1H84V40.1
			C84,38.9,83.1,38,82,38"/>
		<rect x="44.9" y="18.8" class="st2" width="16.3" height="4.1"/>
		<rect x="44.9" y="28" class="st4" width="16.3" height="4.1"/>
		<rect x="44.9" y="37.1" class="st4" width="16.3" height="4.1"/>
		<rect x="44.9" y="46.3" class="st2" width="16.3" height="4.1"/>
		<rect x="44.9" y="55.5" class="st2" width="16.3" height="4.1"/>
		<rect x="44.9" y="64.7" class="st2" width="16.3" height="4.1"/>
		<rect x="44.9" y="73.8" class="st2" width="16.3" height="4.1"/>
		<rect x="69.2" y="46.3" class="st4" width="6" height="4.1"/>
		<rect x="69.2" y="55.5" class="st4" width="6" height="4.1"/>
		<rect x="69.2" y="64.7" class="st4" width="6" height="4.1"/>
		<rect x="69.2" y="73.8" class="st4" width="6" height="4.1"/>
		<rect x="30.8" y="55.5" class="st4" width="6" height="4.1"/>
		<rect x="30.8" y="64.7" class="st4" width="6" height="4.1"/>
		<rect x="30.8" y="73.8" class="st4" width="6" height="4.1"/>
	</g>
</g>
<path class="st8" d="M70,10.7l-3,10.5c-0.4,0.1-1.2,0.1-1.5,0.1s-0.9,0-1.4-0.1l-0.8-5.5C63.1,15,63,14.1,63,13.6h-0.1
	c-0.3,1.3-0.8,3.3-1.1,4.6l-0.9,3.1c-0.4,0.1-0.8,0.1-1.2,0.1c-0.3,0-0.8,0-1.1-0.1l3-10.5c0.4-0.1,1.2-0.1,1.5-0.1s0.9,0,1.4,0.1
	l0.8,5.5c0.1,0.9,0.2,1.8,0.3,2.4h0.1c0.3-1.4,0.8-3.5,1.1-4.6l0.5-1.9c0.3-1.1,0.9-1.5,1.8-1.5L70,10.7L70,10.7z"/>
<path class="st8" d="M75.8,20.1c-0.3,0.8-1,1.2-1.9,1.2h-4.1c-0.9,0-1.3-0.6-1-1.4l2.6-9.1l0.1-0.1h6.7c0,0.4-0.1,0.7-0.2,1
	s-0.3,0.7-0.5,1.1h-3.2h-1.1c-0.1,0.4-0.2,0.7-0.3,1.1L72.6,15c0.4,0,0.8,0,1.1,0H76c0,0.3-0.1,0.7-0.1,1c-0.1,0.3-0.2,0.7-0.4,1H73
	h-1l-0.3,1.2c-0.1,0.4-0.2,0.7-0.3,1.1l0,0c0.4,0,0.7,0,1.2,0H76C76,19.5,75.9,19.8,75.8,20.1"/>
<path class="st2" d="M50.2,13c-0.3,0.3-0.5,0.6-0.7,0.9c-0.2,0.3-0.4,0.7-0.6,1l1.8,0.4c0.1-0.2,0.2-0.4,0.4-0.6
	c0.1-0.2,0.3-0.4,0.5-0.5L50.2,13z"/>
<path class="st8" d="M54.2,10.7c-0.3,0.1-0.7,0.2-1,0.3c-0.4,0.1-0.7,0.3-1.1,0.5c-0.4,0.2-0.7,0.4-1,0.7s-0.6,0.5-0.9,0.8l1.4,1.1
	c0.2-0.2,0.4-0.4,0.6-0.5c0.2-0.2,0.4-0.3,0.7-0.4c0.2-0.1,0.5-0.2,0.7-0.3s0.4-0.1,0.6-0.2c0.2,0,0.5-0.1,0.7-0.1l0.6-2
	C55,10.6,54.6,10.7,54.2,10.7"/>
<path class="st9" d="M59.4,14.9c0-0.3,0-0.6,0-0.9c0-0.3-0.1-0.7-0.2-0.9c-0.1-0.3-0.3-0.6-0.4-0.8c-0.2-0.3-0.4-0.5-0.6-0.7
	c-0.2-0.2-0.5-0.3-0.7-0.5c-0.3-0.1-0.6-0.2-0.9-0.3c-0.3-0.1-0.7-0.1-1-0.1l-0.6,2c0.2,0,0.5,0,0.7,0.1c0.2,0,0.4,0.1,0.6,0.2
	c0.2,0.1,0.3,0.2,0.5,0.3s0.3,0.3,0.4,0.4c0.1,0.2,0.2,0.3,0.3,0.5s0.1,0.4,0.1,0.6c0,0.2,0,0.4,0,0.6c0,0.2-0.1,0.4-0.1,0.7h2
	C59.3,15.6,59.3,15.3,59.4,14.9"/>
<path class="st10" d="M52.2,19.3c-0.2,0-0.4-0.1-0.6-0.2c-0.2-0.1-0.3-0.2-0.5-0.3c-0.2-0.1-0.3-0.3-0.4-0.4
	c-0.1-0.2-0.2-0.3-0.3-0.5s-0.1-0.4-0.1-0.6s0-0.4,0-0.6s0.1-0.4,0.1-0.7c0.1-0.2,0.2-0.5,0.3-0.7l-1.8-0.4
	c-0.2,0.3-0.3,0.7-0.4,1.1c-0.1,0.4-0.2,0.7-0.2,1.1c0,0.3,0,0.6,0,0.9s0.1,0.7,0.2,0.9c0.1,0.3,0.3,0.6,0.4,0.8
	c0.2,0.3,0.4,0.5,0.6,0.7c0.2,0.2,0.5,0.3,0.7,0.5c0.3,0.1,0.6,0.2,0.9,0.3c0.3,0.1,0.7,0.1,1,0.1l0.6-2
	C52.6,19.4,52.4,19.3,52.2,19.3"/>
<path class="st4" d="M57.2,16c-0.1,0.2-0.2,0.5-0.3,0.7s-0.2,0.4-0.4,0.6c-0.1,0.2-0.3,0.4-0.5,0.5c-0.2,0.2-0.4,0.4-0.6,0.5
	c-0.2,0.2-0.4,0.3-0.7,0.4c-0.2,0.1-0.5,0.2-0.7,0.3c-0.2,0.1-0.4,0.1-0.6,0.2c-0.2,0-0.5,0.1-0.7,0.1l-0.6,2c0.4,0,0.7,0,1.1-0.1
	c0.3-0.1,0.7-0.2,1-0.3c0.4-0.1,0.7-0.3,1.1-0.5c0.4-0.2,0.7-0.4,1-0.7c0.3-0.3,0.6-0.5,0.9-0.8c0.3-0.3,0.5-0.6,0.7-0.9
	s0.4-0.7,0.6-1c0.2-0.3,0.3-0.7,0.4-1.1L57.2,16L57.2,16z"/>
<path class="st10" d="M49.8,5.4c2-0.1,3,1.3,2.6,2.7c0,0-2.7-1.3-8.4,0C45.4,7.1,47.7,5.5,49.8,5.4"/>
<path class="st8" d="M14.8,10.6c-1.4,0-2,0.4-2.4,1.1l-0.6,1.2H17l-2.4,8.3h4.3l2.4-8.3h2c1.9,0,2.6-0.6,3.7-2.3H14.8z M41.2,10.6
	c-1.6,0-2.2,0.3-2.9,1.4l-3.4,5.7h-0.2l-0.6-7.1h-3.9c-2.3,0-3,0.5-3.5,2l-2.5,8.6h3.4l2.2-7.7h0.3l0.7,7.7h2.8
	c1.8,0,2.5-0.1,3.3-1.4l3.8-6.3H41l-2.2,7.7H43l3.1-10.7L41.2,10.6L41.2,10.6z"/>
<path class="st4" d="M39.4,2.6c3.6,0,5.5,1.6,5.5,3.1c0,1.6-2.6,3.3-5.7,3.6c0,0,0.4-0.3,0.9-0.9c2.4-2.9-3.3-4.2-11.2-1.1
	C30.8,5.3,35,2.6,39.4,2.6"/>
</svg>
