<?xml version="1.0" encoding="UTF-8" standalone="no"?>
<svg width="150px" height="150px" viewBox="0 0 150 150" version="1.1" xmlns="http://www.w3.org/2000/svg" xmlns:xlink="http://www.w3.org/1999/xlink">
    <!-- Generator: Sketch 48.2 (47327) - http://www.bohemiancoding.com/sketch -->
    <title>guide-boxed</title>
    <desc>Created with Sketch.</desc>
    <defs></defs>
    <g id="Page-1" stroke="none" stroke-width="1" fill="none" fill-rule="evenodd">
        <g id="guide-boxed">
            <rect id="Rectangle" fill="#EFF4F7" x="0" y="0" width="150" height="150"></rect>
            <g id="guide-icon" transform="translate(45.000000, 45.000000)" fill-rule="nonzero">
                <path d="M44.4605235,59.6542156 C43.4773356,58.7321238 41.0129815,55.0565635 40.0170249,53.058698 L39.659502,52.3159018 L21.591828,52.2902882 L3.52415408,52.2518677 L2.821877,51.8932764 C2.0302192,51.4834578 1.31517344,50.8431163 0.766120451,50.0490928 C-0.0255373484,48.909285 0.0127686742,50.1515475 0.0127686742,26.189968 C0.0127686742,2.01067236 -0.0383060226,3.49626467 0.842732496,2.16435432 C1.35347946,1.38313767 2.15790594,0.691568837 3.02617578,0.294557097 L3.65184082,0 L22.2302618,0 L40.8086827,0 L41.6514152,0.40981857 C42.6729091,0.909284952 43.5667163,1.83137673 44.0391573,2.85592316 L44.3839115,3.58591249 L44.4477548,14.036286 L44.5115982,24.4866596 L46.0693765,25.9338314 C49.1210896,28.7641409 51.4449883,32.0426894 51.7897425,34.0149413 C51.8280485,34.2582711 51.9174292,34.6808965 51.9812726,34.9626467 C52.045116,35.244397 52.1089594,38.2796158 52.1089594,41.7118463 L52.1089594,47.9487727 L52.8750798,48.8836713 C53.2964461,49.3959445 54.1647159,50.4973319 54.8031496,51.3169691 C55.4415833,52.149413 56.1949351,53.0971185 56.5013833,53.4300961 C56.9610555,53.9551761 58.3911471,55.7481323 59.5403277,57.2721451 C60.0255373,57.8996798 60.1149181,58.4759872 59.8212386,59.1163287 C59.5020217,59.8335112 59.2211109,60 58.2889977,60 C57.3313471,60 57.2930411,59.9743863 55.9140243,58.1942369 C55.3266652,57.4386339 53.4879762,55.1205977 51.8280485,53.0458911 L48.7891041,49.2550694 L48.7891041,43.0693703 C48.7891041,37.6136606 48.7252607,36.2305229 48.4698872,34.8858058 C48.2528197,33.7075774 47.0525644,31.9146211 45.0351139,29.7118463 L44.4605235,29.0715048 L44.4477548,34.1430096 L44.4477548,39.2017076 L44.8435837,39.8420491 C45.341562,40.6104589 45.4564801,41.3532551 45.1628006,41.9167556 C44.5882103,43.0309498 43.7582464,42.9284952 42.5707597,41.5965848 C42.1366248,41.1099253 41.4343477,40.3415155 40.9874441,39.8804696 C40.5405405,39.4194237 39.6850394,38.5101387 39.0976804,37.8569904 C37.6675888,36.2817503 37.2462226,36.076841 36.3268781,36.5122732 C35.8544371,36.7427962 35.5607576,37.3831377 35.701213,37.8697972 C35.7905937,38.1643543 36.5822515,39.2529349 40.4766972,44.452508 C41.0002128,45.1440768 41.6514152,46.0149413 41.9067887,46.3607257 L42.3792296,47.0010672 L42.4303043,48.601921 C42.481379,50.1643543 42.4941477,50.2283885 42.992126,51.2913554 C43.656097,52.7001067 45.2138753,55.1462113 46.3502873,56.5805763 C46.8610343,57.2209178 47.2824005,57.886873 47.3207065,58.1173959 C47.4228559,58.6296692 47.2185571,59.1803629 46.7716535,59.6542156 C46.477974,59.9615795 46.3502873,60 45.6352415,60 C44.9329645,60 44.792509,59.9487727 44.4605235,59.6542156 Z M39.0082996,48.4866596 C38.995531,48.2945571 38.7912322,47.8719317 38.561396,47.5517609 C38.3187912,47.2315902 37.4505214,46.0917823 36.6333262,45.0032017 C32.5090445,39.547492 32.5728878,39.6627535 32.4835071,38.2283885 C32.3813577,36.7299893 32.8665674,35.4493063 33.90083,34.5400213 C34.5009577,34.0149413 34.8712492,33.8228388 35.8799745,33.5410886 C36.5950202,33.3489861 36.799319,33.3361793 37.4760587,33.4770544 C38.6635454,33.7203842 39.2764418,34.0533618 40.1830177,34.9114194 L41.0002128,35.7054429 L41.0002128,20.0683031 C41.0002128,8.22198506 40.9619068,4.35432231 40.8469887,4.0981857 C40.5150032,3.35538954 41.5492658,3.39381003 22.1536497,3.39381003 L4.32858055,3.39381003 L3.89444563,3.82924226 L3.4603107,4.26467449 L3.4603107,26.0490928 C3.4603107,49.4471718 3.43477336,48.3457844 4.06043839,48.7171825 C4.21366248,48.8068303 10.1000213,48.8452508 21.6684401,48.8580576 L39.033837,48.8580576 L39.0082996,48.4866596 Z" id="Shape" fill="#CDCDD0"></path>
                <path d="M9.37220685,43.7353255 C8.81038519,43.3895411 8.69546712,43.1205977 8.69546712,42.0832444 C8.69546712,41.2251868 8.72100447,41.1483458 9.12960204,40.6872999 L9.56373697,40.2134472 L19.791445,40.2134472 L30.019153,40.2134472 L30.4660566,40.6744931 C30.8491168,41.0458911 30.9384976,41.2508004 31.0023409,41.8271078 C31.0917216,42.7107791 30.8235795,43.3767343 30.2489891,43.7353255 C29.8403916,43.9914621 29.6360928,43.9914621 19.8042137,43.9914621 C10.1000213,43.9914621 9.76803575,43.9786553 9.37220685,43.7353255 Z" id="Shape" fill="#4FC2EA"></path>
                <path d="M9.51266227,35.9359658 C8.84869121,35.5261473 8.69546712,35.2059765 8.69546712,34.1558164 C8.69546712,33.2593383 8.72100447,33.1824973 9.09129602,32.8367129 C9.30836348,32.6318036 9.70419238,32.4140875 9.97233454,32.3372465 C10.3043201,32.2475987 13.7263247,32.2091782 20.0851245,32.2347919 C29.4828687,32.2732124 29.7127048,32.2732124 30.1468398,32.529349 C30.7852735,32.9135539 31.0661843,33.5154749 31.0023409,34.411953 C30.9768036,34.9754536 30.8874229,35.2315902 30.644818,35.4877268 C29.9680783,36.2049093 30.4660566,36.1792956 19.7786763,36.1792956 C10.2915514,36.1792956 9.89572249,36.1664888 9.51266227,35.9359658 Z" id="Shape" fill="#4FC2EA"></path>
                <path d="M9.90849117,28.072572 C8.96360928,27.701174 8.69546712,27.2913554 8.69546712,26.2283885 C8.69546712,25.3447172 8.88699723,25.0245464 9.62758034,24.6147279 L10.1638647,24.3329776 L22.7410087,24.3329776 L35.3181528,24.3329776 L35.8544371,24.6147279 C36.6205576,25.0373533 36.7865503,25.3319104 36.7865503,26.3180363 C36.7865503,27.1120598 36.761013,27.1889007 36.3779528,27.547492 C36.1481166,27.7652081 35.7905937,28.0085379 35.5990636,28.0853789 C35.0883167,28.303095 10.4703128,28.2902882 9.90849117,28.072572 Z" id="Shape" fill="#4FC2EA"></path>
                <path d="M9.64034901,20.0554963 C8.88699723,19.7097118 8.69546712,19.3767343 8.69546712,18.4034152 C8.69546712,17.4557097 8.89976591,17.058698 9.60204299,16.7001067 C10.0744839,16.4695838 10.4703128,16.4567769 22.6643967,16.4567769 C33.9519047,16.4567769 35.3053841,16.4823906 35.7650564,16.6616862 C36.5184082,16.9690502 36.7865503,17.4172892 36.7865503,18.4034152 C36.7865503,19.3767343 36.5950202,19.7097118 35.8416684,20.0554963 C35.3436901,20.2860192 34.7563311,20.298826 22.7410087,20.298826 C10.7256863,20.298826 10.1383273,20.2860192 9.64034901,20.0554963 Z" id="Shape" fill="#4FC2EA"></path>
                <path d="M9.65311768,12.3073639 C8.93807193,11.9871932 8.75931049,11.6670224 8.70823579,10.5400213 C8.6571611,9.37459979 8.77207917,9.15688367 9.65311768,8.75987193 C10.1383273,8.54215582 10.7256863,8.51654216 19.868057,8.51654216 C29.0742711,8.51654216 29.5977868,8.52934899 30.019153,8.75987193 C30.6831241,9.10565635 30.9512662,9.55389541 31.0151096,10.3991462 C31.0534156,11.0138741 31.0151096,11.2187834 30.7597361,11.5901814 C30.1340711,12.5378869 30.7086614,12.4866596 19.8042137,12.4866596 C11.9897851,12.4738527 9.95956587,12.4482391 9.65311768,12.3073639 Z" id="Shape" fill="#4FC2EA"></path>
            </g>
        </g>
    </g>
</svg>