<?xml version="1.0" encoding="UTF-8" standalone="no"?>
<svg width="150px" height="150px" viewBox="0 0 150 150" version="1.1" xmlns="http://www.w3.org/2000/svg" xmlns:xlink="http://www.w3.org/1999/xlink">
    <!-- Generator: Sketch 48.2 (47327) - http://www.bohemiancoding.com/sketch -->
    <title>truck-line-boxed</title>
    <desc>Created with Sketch.</desc>
    <defs></defs>
    <g id="Page-1" stroke="none" stroke-width="1" fill="none" fill-rule="evenodd">
        <g id="truck-line-boxed">
            <rect id="Rectangle" fill="#EFF4F7" x="0" y="0" width="150" height="150"></rect>
            <g id="truck-line" transform="translate(38.000000, 45.000000)" fill="#4FC2EA" fill-rule="nonzero">
                <path d="M14.9119217,59.6385542 C12.3772242,58.8170865 10.0729537,56.4512596 9.61209964,54.1840088 L9.4475089,53.1982475 L6.2544484,53.1982475 C0.59252669,53.1982475 -0.164590747,52.245345 0.0329181495,45.4764513 C0.164590747,41.2705367 0.427935943,40.3833516 1.84341637,39.7590361 C2.33718861,39.5290252 5.9911032,39.3975904 11.8176157,39.3975904 C16.8870107,39.3975904 21.0346975,39.3318729 21.0346975,39.2990142 C21.0346975,39.2332968 21.4955516,36.966046 22.022242,34.271632 C22.5818505,31.577218 22.9439502,29.211391 22.8781139,28.9813801 C22.7135231,28.6199343 11.0934164,11.8948521 9.77669039,10.1861993 C9.1841637,9.43044907 9.1841637,9.49616648 9.1841637,13.8992333 L9.1841637,18.4008762 L10.13879,18.7294633 C10.6983986,18.9266156 11.225089,19.4523549 11.4225979,19.9452355 C11.7846975,20.8324206 12.4759786,24.7097481 12.4759786,25.6955093 C12.4759786,26.5826944 11.2580071,27.5684556 10.1717082,27.5684556 C9.64501779,27.5684556 9.1841637,27.7327492 9.1841637,27.9299014 C9.1841637,28.1599124 9.84252669,29.0470975 10.6654804,29.9014239 C12.6405694,32.0043812 12.6076512,32.7601314 10.5338078,34.83023 C8.42704626,36.966046 7.70284698,36.966046 5.36565836,34.7645126 C3.42348754,32.924425 3.0613879,31.7086528 4.27935943,31.347207 C4.83896797,31.1500548 5.33274021,31.4457831 6.51779359,32.6286966 L8.06494662,34.1401972 L8.92081851,33.253012 L9.80960854,32.3658269 L8.49288256,30.9529025 C7.76868327,30.1642935 7.11032028,29.0799562 6.97864769,28.5542169 C6.84697509,27.7656079 6.61654804,27.5684556 5.9252669,27.5684556 C3.88434164,27.5355969 3.48932384,26.4512596 4.11476868,22.7710843 C4.64145907,19.7809419 5.20106762,18.6966046 6.28736655,18.6966046 C6.84697509,18.6966046 6.87989324,18.2694414 6.87989324,11.3033954 C6.87989324,3.25301205 7.04448399,2.30010953 8.65747331,1.01861993 C9.15124555,0.657174151 9.97419929,0.230010953 10.5008897,0.13143483 C12.7393238,-0.361445783 13.1343416,1.24032729e-15 26.1040925,14.0635268 C32.8852313,21.456736 38.6459075,27.8970427 38.9092527,28.422782 C39.1725979,28.9485214 39.7980427,31.3800657 40.2918149,33.8116101 C40.752669,36.2431544 41.2464413,38.5104053 41.3122776,38.8389923 C41.4768683,39.2990142 41.8718861,39.3975904 43.9457295,39.3975904 L46.3816726,39.3975904 L46.3816726,28.4556407 C46.3816726,15.4107338 46.0854093,16.2979189 50.5293594,16.1007667 L53.294484,16.0021906 L53.294484,14.5564074 C53.294484,11.9934283 55.3354093,12.1577218 55.5329181,14.720701 C55.6316726,16.0021906 55.6975089,16.067908 56.6850534,16.067908 C58.5613879,16.067908 60.2731317,16.7579409 61.5240214,17.973713 C62.2153025,18.6308872 64.75,22.2782037 67.1530249,26.0569551 L71.5311388,32.924425 L71.6628114,36.2102957 C71.794484,39.3975904 71.8274021,39.4961665 72.8478648,40.3833516 L73.8683274,41.3033954 L73.9670819,45.3778751 C74.1645907,51.8510405 73.2758007,53.1982475 68.930605,53.1982475 L66.9225979,53.1982475 L66.5275801,54.6768894 C65.9679715,56.8455641 63.7624555,58.9156627 61.3594306,59.6056955 C57.1129893,60.8543264 53.0640569,58.8170865 51.4839858,54.7097481 L50.8914591,53.1982475 L38.1192171,53.1982475 L25.3469751,53.1982475 L24.9519573,54.5125958 C24.4581851,56.1883899 22.6476868,58.2913472 21.0346975,59.1128149 C19.3558719,59.9671413 16.6236655,60.1971522 14.9119217,59.6385542 Z M20.5080071,56.7798467 C23.7339858,54.5783133 23.8656584,49.7152245 20.8042705,47.3822563 C19.4546263,46.3636364 16.6565836,45.9693319 15.1094306,46.626506 C13.7268683,47.2179628 11.883452,49.3537788 11.6201068,50.7009858 C10.6983986,55.7612267 16.3603203,59.6385542 20.5080071,56.7798467 Z M61.5240214,57.075575 C64.9145907,55.3669222 65.8362989,51.128149 63.433274,48.4008762 C62.0836299,46.856517 60.8985765,46.2979189 59.0551601,46.2979189 C55.9279359,46.2979189 53.6565836,48.3023001 53.3603203,51.2267251 C53.1628114,53.3625411 53.4261566,54.2825849 54.6770463,55.6955093 C56.6192171,57.8970427 58.9564057,58.3570646 61.5240214,57.075575 Z M9.77669039,49.4523549 C10.8959075,45.2464403 16.4590747,42.7491785 20.5738434,44.6221249 C22.4172598,45.4764513 24.227758,47.415115 24.9190391,49.32092 L25.4786477,50.898138 L38.2179715,50.898138 L50.9572954,50.898138 L51.2864769,49.6495071 C52.5373665,45.0821468 57.9359431,42.6834611 62.3469751,44.7864184 C64.4208185,45.7721796 65.6717082,47.0865279 66.4288256,49.1237678 L67.0542705,50.7338445 L68.9964413,50.8324206 C70.4119217,50.898138 71.0702847,50.7995619 71.366548,50.4709748 C71.6298932,50.1423877 71.7286477,48.6966046 71.6628114,45.9364732 L71.5640569,41.8619934 L37,41.8619934 L2.43594306,41.8619934 L2.33718861,42.8148959 C2.27135231,43.4392114 2.40302491,43.8663746 2.73220641,44.0635268 C3.45640569,44.4578313 3.48932384,48.1051479 2.76512456,48.4008762 C2.17259786,48.6308872 2.10676157,49.9452355 2.66637011,50.5038335 C2.9297153,50.7667032 4.21352313,50.898138 6.22153025,50.898138 L9.3816726,50.898138 L9.77669039,49.4523549 Z M38.975089,38.6746988 C38.8763345,38.2475356 38.4483986,36.1117196 37.9875445,33.8773275 C37.5596085,31.6757941 37.0329181,29.6056955 36.8683274,29.2771084 C36.6708185,28.9813801 31.0747331,22.803943 24.4252669,15.5750274 C11.5542705,1.61007667 11.3238434,1.44578313 9.87544484,2.89156627 C8.49288256,4.27163198 8.75622776,4.83023001 17.0186833,16.5607886 L24.8532028,27.7327492 L28.4412811,27.8970427 C32.0293594,28.0613363 32.0622776,28.0613363 32.0622776,28.8828039 C32.0622776,29.7042716 32.0293594,29.7042716 28.6058719,29.8685652 L25.1823843,30.0328587 L24.2606762,34.4687842 C23.7669039,36.9003286 23.3718861,39.0032859 23.338968,39.1675794 C23.338968,39.2990142 26.8941281,39.3975904 31.2393238,39.3975904 L39.1396797,39.3975904 L38.975089,38.6746988 Z M69.4243772,36.6703176 L69.4243772,33.9101862 L67.6797153,31.1500548 C61.7544484,21.7853231 60.0427046,19.2880613 59.1868327,18.8280394 C58.4955516,18.4994524 57.0142349,18.3680175 53.4590747,18.3680175 L48.6859431,18.3680175 L48.6859431,28.8828039 L48.6859431,39.3975904 L59.0551601,39.3975904 L69.4243772,39.3975904 L69.4243772,36.6703176 Z M10.0400356,24.5454545 C9.94128114,23.9539978 9.77669039,22.8368018 9.64501779,22.0481928 L9.41459075,20.6352683 L8.09786477,20.7338445 C6.61654804,20.8324206 6.74822064,20.6352683 6.08985765,24.381161 L5.8594306,25.5969332 L8.06494662,25.5969332 L10.2375445,25.5969332 L10.0400356,24.5454545 Z" id="Shape"></path>
                <path d="M15.7677936,53.5268346 C14.8131673,52.5739321 14.9119217,51.0952903 15.9982206,50.2409639 C18.1049822,48.5980285 20.705516,51.1938664 19.0596085,53.2968237 C18.2037367,54.381161 16.7224199,54.4797371 15.7677936,53.5268346 Z" id="Shape"></path>
                <path d="M57.2775801,53.3296824 C56.8825623,52.8368018 56.5862989,52.3439211 56.5862989,52.1796276 C56.5862989,51.3910186 57.4421708,50.2409639 58.2980427,49.8795181 C59.1209964,49.550931 59.3843416,49.5837897 60.1414591,50.1423877 C61.2935943,50.9967141 61.4911032,52.5739321 60.569395,53.4939759 C59.5818505,54.4797371 58.1005338,54.381161 57.2775801,53.3296824 Z" id="Shape"></path>
                <path d="M7.47241993,48.2365827 C7.04448399,48.0065717 6.87989324,47.4808324 6.87989324,46.3307777 C6.87989324,44.6221249 7.40658363,43.8663746 8.42704626,44.0635268 C9.5133452,44.2606791 9.34875445,48.6308872 8.22953737,48.5980285 C8.13078292,48.5980285 7.76868327,48.4337349 7.47241993,48.2365827 Z" id="Shape"></path>
                <path d="M25.8407473,48.0722892 C25.2153025,47.4479737 25.1494662,45.3450164 25.7419929,44.5235487 C25.9724199,44.1949617 26.4661922,43.9649507 26.8282918,44.0635268 C27.3220641,44.162103 27.4866548,44.49069 27.5524911,45.9036145 C27.6841637,48.2694414 26.9599644,49.1894852 25.8407473,48.0722892 Z" id="Shape"></path>
                <path d="M31.7660142,48.1708653 C31.3380783,47.8422782 31.2064057,47.3493976 31.3051601,45.9693319 C31.4039146,44.3592552 31.4697509,44.162103 32.1939502,44.0635268 C33.2144128,43.8992333 33.5435943,44.4578313 33.5435943,46.3636364 C33.5435943,48.1380066 32.7864769,48.8937568 31.7660142,48.1708653 Z" id="Shape"></path>
                <path d="M37.5596085,48.3023001 C37.2633452,48.1380066 37.1645907,47.4479737 37.230427,46.1007667 C37.3291815,44.2935378 37.3620996,44.162103 38.1521352,44.162103 C38.9421708,44.162103 38.975089,44.2935378 39.0738434,46.1007667 C39.1725979,47.8751369 38.9092527,48.5980285 38.1521352,48.5980285 C38.0533808,48.5980285 37.7900356,48.4665936 37.5596085,48.3023001 Z" id="Shape"></path>
                <path d="M43.3532028,48.2365827 C42.9252669,48.0065717 42.7606762,47.4808324 42.7606762,46.3307777 C42.7606762,44.6221249 43.2873665,43.8663746 44.3078292,44.0635268 C45.3941281,44.2606791 45.2295374,48.6308872 44.1103203,48.5980285 C44.0115658,48.5980285 43.6494662,48.4337349 43.3532028,48.2365827 Z" id="Shape"></path>
                <path d="M49.0480427,48.1380066 C48.8176157,47.8751369 48.6859431,46.9222344 48.7517794,45.9036145 C48.8176157,44.49069 48.9822064,44.162103 49.4759786,44.0635268 C49.8380783,43.9649507 50.3318505,44.1949617 50.5622776,44.5235487 C51.1548043,45.3450164 51.088968,47.4479737 50.4635231,48.0722892 C49.8380783,48.7294633 49.5418149,48.7294633 49.0480427,48.1380066 Z" id="Shape"></path>
                <path d="M67.4822064,48.1380066 C67.2517794,47.8751369 67.1201068,46.9222344 67.1859431,45.9036145 C67.2517794,44.5564074 67.4163701,44.1292442 67.8772242,44.0635268 C68.8976868,43.8663746 69.4243772,44.6221249 69.4243772,46.3307777 C69.4243772,47.5794085 69.2927046,48.0065717 68.7989324,48.2694414 C67.9759786,48.6966046 67.9430605,48.6966046 67.4822064,48.1380066 Z" id="Shape"></path>
                <path d="M51.1218861,36.2760131 C50.6939502,35.1916758 51.2535587,34.7973713 53.0640569,34.7973713 C54.9733096,34.7973713 55.7633452,35.2902519 55.4012456,36.2431544 C55.1049822,36.966046 51.3852313,36.9989047 51.1218861,36.2760131 Z" id="Shape"></path>
                <path d="M51.5498221,31.577218 C51.088968,31.0843373 50.9902135,30.1971522 50.9902135,26.516977 C50.9902135,20.9638554 50.9572954,20.9967141 55.1379004,20.9967141 C57.0142349,20.9967141 58.2980427,21.1610077 58.6272242,21.4238773 C59.4830961,22.1139102 63.8282918,29.3756846 63.8282918,30.1314348 C63.8282918,30.5257393 63.5320285,31.1500548 63.1699288,31.5115005 C62.5774021,32.1029573 62.0836299,32.1686747 57.3104982,32.1686747 C52.6690391,32.1686747 52.0106762,32.1029573 51.5498221,31.577218 Z M61.5240214,30.0657174 C61.5240214,29.9671413 60.5364769,28.3570646 59.3514235,26.4512596 L57.1788256,22.9682366 L55.2366548,22.9682366 L53.294484,22.9682366 L53.294484,26.5826944 L53.294484,30.1971522 L57.4092527,30.1971522 C59.680605,30.1971522 61.5240214,30.1314348 61.5240214,30.0657174 Z" id="Shape"></path>
            </g>
        </g>
    </g>
</svg>