<?xml version="1.0" encoding="UTF-8" standalone="no"?>
<svg width="160px" height="50px" viewBox="0 0 160 50" version="1.1" xmlns="http://www.w3.org/2000/svg" xmlns:xlink="http://www.w3.org/1999/xlink">
    <!-- Generator: Sketch 48.2 (47327) - http://www.bohemiancoding.com/sketch -->
    <title>AACClogo</title>
    <desc>Created with Sketch.</desc>
    <defs></defs>
    <g id="Page-1" stroke="none" stroke-width="1" fill="none" fill-rule="evenodd">
        <g id="Group" transform="translate(-20.000000, -31.000000)" fill="#FFFFFE" fill-rule="nonzero">
            <g id="AACClogo" transform="translate(20.000000, 30.000000)">
                <g id="Group" transform="translate(80.138614, 25.901961) scale(-1, 1) rotate(-180.000000) translate(-80.138614, -25.901961) translate(0.138614, 0.901961)">
                    <path d="M86,49.7843137 C85.6237624,49.745098 84.1980198,49.6078431 82.8316832,49.4901961 C79.3267327,49.1960784 75.1089109,48.4509804 73.1287129,47.7843137 C69.3465347,46.5098039 66.2970297,44.8235294 58.8118812,39.8823529 C55.9009901,37.9411765 53.0891089,36.1568627 52.5742574,35.9019608 C51.6435644,35.4313725 51.5841584,35.4313725 43.3267327,35.3333333 C32.5940594,35.1960784 29.7029703,34.9019608 24.1782178,33.3333333 C16.2178218,31.0588235 3.62376238,24.9019608 0.871287129,21.9411765 L0,21.0392157 L0.138613861,19.7647059 C0.495049505,16.3921569 1.6039604,11.1176471 2.23762376,9.90196078 C3.26732673,7.90196078 5.76237624,7.05882353 11.1485149,6.88235294 L13.8217822,6.78431373 L11.5643564,6.96078431 C6.27722772,7.37254902 3.58415842,8.2745098 2.73267327,9.90196078 C2.25742574,10.8039216 1.68316832,13.5098039 1.14851485,17.1764706 C0.594059406,21.0392157 0.574257426,20.9215686 2.2970297,22.2156863 C3.88118812,23.4117647 4.83168317,23.9411765 8.57425743,25.8039216 C16.5940594,29.7647059 24.1386139,32.3333333 30.5544554,33.2745098 C31.7227723,33.4313725 35.3465347,33.5098039 42.3366337,33.5294118 L52.4356436,33.5294118 L53.9207921,34.2941176 C54.7326733,34.7058824 57.4059406,36.3137255 59.8613861,37.8431373 C65.2871287,41.2352941 66.8316832,42.1176471 69.7623762,43.5098039 C72.8118812,44.9607843 74.6336634,45.5098039 77.8415842,45.9803922 C86.4950495,47.2352941 95.5049505,46.9215686 109.168317,44.8823529 C122.079208,42.9803922 127.405941,41.8823529 133.90099,39.8235294 C137.445545,38.6862745 141.980198,37.8039216 148.910891,36.8627451 C154.475248,36.1176471 154.831683,36.0392157 155.960396,35.4509804 C157.148515,34.8039216 157.960396,33.7647059 157.821782,33.0392157 C157.663366,32.2745098 158.039604,29.254902 158.613861,26.7647059 C159.049505,24.8235294 159.108911,24.2352941 158.990099,22.5686275 C158.831683,20.0588235 158.257426,17.2941176 157.326733,14.5294118 L156.594059,12.3529412 L155.405941,11.7254902 C153.821782,10.8627451 151.60396,10.1764706 148.376238,9.49019608 C146.910891,9.17647059 146.19802,8.98039216 146.792079,9.03921569 C148.514851,9.21568627 152.277228,10.0784314 154.059406,10.7254902 C156.693069,11.6666667 156.851485,11.8235294 157.742574,14.3137255 C159.60396,19.5490196 160.079208,23.9215686 159.267327,28.1372549 L158.811881,30.4901961 L159.247525,33.1176471 C159.722772,35.9803922 159.663366,36.4901961 158.811881,36.6470588 C158.574257,36.6862745 157.049505,36.9215686 155.405941,37.1372549 C150.475248,37.8431373 141.089109,39.4705882 138.930693,40.0196078 C137.80198,40.2941176 135.227723,41.1960784 133.188119,42.0392157 C127.306931,44.4705882 122.49505,45.9019608 115.50495,47.3333333 C109.960396,48.4509804 103.584158,49.2745098 97.2079208,49.6862745 C94.3366337,49.8823529 87.6831683,49.9215686 86,49.7843137 Z" id="Shape"></path>
                    <path d="M68.9306931,36.0196078 C68.0594059,35.3333333 65.8415842,32.9215686 64.6732673,31.4117647 C63.5841584,29.9803922 63.5445545,29.9607843 62.5940594,29.7058824 C61.7029703,29.4509804 61.1287129,28.9607843 61.4257426,28.6666667 C61.5445545,28.5490196 61.8217822,28.5490196 62.2376238,28.7058824 L62.8712871,28.9215686 L62.3564356,28.0784314 C61.2079208,26.254902 60.7524752,25.2156863 61.009901,24.9607843 C61.3267327,24.6470588 61.5049505,24.8431373 62.9108911,27.2156863 C63.5247525,28.254902 64.2376238,29.254902 64.4752475,29.3921569 C64.950495,29.7058824 67.2277228,30.3333333 67.3465347,30.1960784 C67.4059406,30.1372549 67.2871287,29.372549 67.1089109,28.4901961 C66.6930693,26.3529412 66.6930693,25.0784314 67.1089109,24.9215686 C67.2871287,24.8431373 67.4851485,24.8431373 67.5247525,24.8823529 C67.5841584,24.9215686 67.7029703,25.627451 67.8019802,26.4509804 C67.9009901,27.254902 68.0990099,28.4901961 68.2376238,29.1568627 C68.4554455,30.2352941 68.5544554,30.3921569 68.970297,30.4509804 C69.5049505,30.5294118 69.960396,30.8235294 69.960396,31.0980392 C69.960396,31.1960784 69.7029703,31.3333333 69.3861386,31.4117647 L68.7920792,31.5686275 L69.4851485,33.627451 C69.8415842,34.7647059 70.1584158,35.8235294 70.1584158,36 C70.1584158,36.5686275 69.6237624,36.5686275 68.9306931,36.0196078 Z M68.2970297,33 L67.6633663,31.2156863 L66.4356436,30.8823529 C65.7623762,30.6862745 65.2079208,30.6078431 65.2079208,30.6666667 C65.2079208,31.0588235 68.5346535,34.8039216 68.8712871,34.8039216 C68.9108911,34.8039216 68.6336634,34 68.2970297,33 Z" id="Shape"></path>
                    <path d="M110.455446,34.9607843 C109.584158,34.0588235 108.277228,32.5686275 107.544554,31.6470588 C106.435644,30.2352941 106.079208,29.9215686 105.366337,29.7254902 C104.376238,29.4313725 104.019802,29.1764706 104.019802,28.7843137 C104.019802,28.5490196 104.178218,28.5098039 104.752475,28.627451 L105.465347,28.7647059 L105.148515,28.254902 C104.970297,27.9803922 104.49505,27.1764706 104.09901,26.4705882 C103.544554,25.4509804 103.425743,25.1176471 103.60396,24.9411765 C103.920792,24.627451 104.356436,25.1568627 105.841584,27.5882353 L106.970297,29.4705882 L108.514851,29.8823529 C109.346535,30.0980392 110.059406,30.254902 110.09901,30.2156863 C110.138614,30.1764706 110.039604,29.5490196 109.881188,28.8039216 C109.386139,26.3921569 109.326733,25.5294118 109.623762,25.1176471 C110.039604,24.5490196 110.277228,24.8627451 110.435644,26.1176471 C110.49505,26.745098 110.712871,27.9803922 110.871287,28.8627451 C111.188119,30.4313725 111.207921,30.4705882 111.821782,30.5294118 C112.277228,30.5686275 112.435644,30.6862745 112.435644,30.9803922 C112.435644,31.2352941 112.277228,31.3921569 112,31.4313725 C111.742574,31.4705882 111.544554,31.5882353 111.544554,31.7058824 C111.544554,31.8235294 111.861386,32.8431373 112.257426,33.9607843 C112.811881,35.5686275 112.910891,36.0784314 112.712871,36.2941176 C112.594059,36.4509804 112.376238,36.5686275 112.257426,36.5686275 C112.138614,36.5686275 111.326733,35.8431373 110.455446,34.9607843 Z M110.970297,32.9215686 L110.376238,31.1960784 L109.267327,30.9215686 C108.653465,30.7647059 108.09901,30.7058824 108.039604,30.7647059 C107.980198,30.8235294 108.257426,31.2941176 108.673267,31.8039216 C109.584158,32.9411765 111.405941,34.8235294 111.485149,34.7254902 C111.524752,34.6862745 111.287129,33.8823529 110.970297,32.9215686 Z" id="Shape"></path>
                    <path d="M88.2970297,34.5686275 C87.9405941,34 87.3069307,32.8823529 86.9108911,32.1176471 C86.2574257,30.8039216 86.1386139,30.6862745 85.5841584,30.6862745 C84.6336634,30.6862745 83.8613861,30.1568627 83.2475248,29.0784314 C82.4752475,27.745098 82.2970297,26.7058824 82.7128713,26.0784314 C83.1881188,25.3529412 83.8811881,25.4509804 84.5940594,26.3137255 C85.1881188,27.0392157 85.2079208,27.0392157 85.2079208,26.5490196 C85.2079208,25.9019608 85.9009901,25.2156863 86.2376238,25.5490196 C86.4158416,25.7254902 86.3960396,25.9215686 86.1386139,26.3529412 C85.8415842,26.8431373 85.8217822,27.0784314 86,27.8431373 C86.2376238,28.9215686 87.1881188,30.9019608 88.5742574,33.3137255 C89.5049505,34.9215686 89.6831683,35.5882353 89.1683168,35.5882353 C89.049505,35.5882353 88.6732673,35.1176471 88.2970297,34.5686275 Z M85.8019802,29.7647059 C85.8019802,29.5294118 84.5346535,27.3529412 84.1782178,26.9607843 C83.7425743,26.4901961 83.3663366,26.5294118 83.2673267,27.0392157 C83.1485149,27.5882353 84.1980198,29.4901961 84.7722772,29.7843137 C85.2475248,30.0196078 85.8019802,30.0196078 85.8019802,29.7647059 Z" id="Shape"></path>
                    <path d="M101.584158,33.4313725 C101.287129,33.0980392 100.910891,32.5686275 100.712871,32.2352941 C100.514851,31.9215686 100.138614,31.6078431 99.8613861,31.5490196 C99.009901,31.3529412 98.8712871,31.2941176 98.8712871,31.0588235 C98.8712871,30.9411765 99.029703,30.8039216 99.2475248,30.745098 C99.5841584,30.6666667 99.5841584,30.5882353 99.049505,29.3333333 C98.2574257,27.4705882 98.1386139,26.5686275 98.6138614,26 C98.950495,25.5882353 99.0891089,25.5686275 99.5841584,25.7254902 C100.19802,25.9215686 101.841584,27.7647059 101.841584,28.2352941 C101.841584,28.7254902 101.524752,28.5686275 100.950495,27.8039216 C99.2277228,25.5098039 98.6534653,26.5882353 100.039604,29.4509804 C100.792079,30.9803922 100.871287,31.0588235 101.683168,31.2745098 C103.049505,31.6470588 103.465347,31.8431373 103.306931,32.0784314 C103.247525,32.1960784 102.851485,32.254902 102.435644,32.2156863 L101.683168,32.1568627 L102.118812,32.8823529 C102.415842,33.4117647 102.475248,33.6666667 102.316832,33.8235294 C102.158416,33.9803922 101.960396,33.8823529 101.584158,33.4313725 Z" id="Shape"></path>
                    <path d="M133.80198,33.8627451 C133.683168,33.7843137 133.227723,33.2156863 132.772277,32.6078431 C132.178218,31.8039216 131.80198,31.4705882 131.405941,31.4313725 C130.772277,31.3529412 130.554455,30.9019608 131.108911,30.745098 C131.485149,30.6470588 131.485149,30.6078431 130.891089,29.372549 C130.158416,27.7843137 129.980198,26.3921569 130.455446,25.9215686 C130.871287,25.4901961 131.108911,25.5098039 131.861386,25.9607843 C132.554455,26.372549 133.782178,28.0980392 133.584158,28.3921569 C133.524752,28.4901961 133.049505,28.1176471 132.534653,27.5490196 C131.861386,26.7647059 131.524752,26.5294118 131.267327,26.627451 C130.792079,26.8039216 130.970297,27.627451 131.90099,29.5098039 L132.633663,30.9803922 L133.881188,31.372549 C135.326733,31.8235294 135.60396,32.3333333 134.316832,32.2156863 C133.405941,32.1372549 133.386139,32.1764706 133.920792,32.8431373 C134.138614,33.1176471 134.316832,33.4313725 134.316832,33.5686275 C134.316832,33.8823529 134.059406,34.0196078 133.80198,33.8627451 Z" id="Shape"></path>
                    <path d="M83.2277228,33.4313725 C82.7128713,32.9215686 82.7128713,32.254902 83.2277228,32.254902 C83.6831683,32.254902 84.3168317,33.1176471 84.1386139,33.5294118 C84,33.9215686 83.7029703,33.9019608 83.2277228,33.4313725 Z" id="Shape"></path>
                    <path d="M125.207921,33.3529412 C124.732673,32.8431373 124.772277,32.254902 125.287129,32.254902 C125.683168,32.254902 126.277228,33.1568627 126.118812,33.5294118 C125.960396,33.9411765 125.742574,33.9019608 125.207921,33.3529412 Z" id="Shape"></path>
                    <path d="M115.188119,31.0588235 C114.49505,30.8627451 113.326733,29.6862745 113.326733,29.1960784 C113.326733,29.0196078 113.564356,28.4509804 113.841584,27.9411765 C114.455446,26.8039216 114.415842,26.2941176 113.663366,26.2156863 C112.970297,26.1372549 112.554455,26.9019608 112.891089,27.627451 C113.168317,28.2352941 112.970297,28.4313725 112.49505,28 C112.277228,27.8039216 112.138614,27.4117647 112.138614,26.9215686 C112.138614,25.9607843 112.693069,25.3921569 113.623762,25.3921569 C114.970297,25.3921569 115.50495,26.6078431 114.712871,27.9019608 C114.09901,28.8823529 114.178218,29.627451 114.970297,30.0980392 C115.306931,30.3137255 115.762376,30.4901961 115.960396,30.4901961 C116.554455,30.4901961 116.277228,29.8431373 115.564356,29.5098039 C114.831683,29.1764706 114.693069,28.7254902 115.326733,28.7254902 C116.653465,28.7254902 117.881188,30.5490196 116.910891,31.0784314 C116.455446,31.3137255 116.039604,31.3137255 115.188119,31.0588235 Z" id="Shape"></path>
                    <path d="M119.742574,30.9019608 C118.237624,30.2156863 117.960396,29.3529412 118.732673,27.7843137 C119.287129,26.7058824 119.227723,26.1764706 118.574257,26.1764706 C117.920792,26.1764706 117.60396,26.6470588 117.742574,27.4509804 C117.821782,27.9607843 117.782178,28.1372549 117.584158,28.1372549 C117.227723,28.1372549 116.891089,27.5294118 116.891089,26.9019608 C116.891089,25.5490196 118.594059,24.9019608 119.564356,25.8823529 C120.178218,26.4705882 120.178218,26.8627451 119.564356,27.8431373 C119.306931,28.2745098 119.069307,28.8235294 119.069307,29.0588235 C119.069307,29.5882353 120.178218,30.5294118 120.732673,30.4509804 C121.386139,30.3529412 121.227723,29.8431373 120.415842,29.4705882 C119.584158,29.0784314 119.425743,28.7254902 120.059406,28.7254902 C121.485149,28.7254902 122.693069,30.5294118 121.663366,31.0784314 C121.108911,31.3529412 120.673267,31.3137255 119.742574,30.9019608 Z" id="Shape"></path>
                    <path d="M127.485149,30.9803922 C126.534653,30.6470588 125.80198,29.8627451 125.80198,29.1764706 C125.80198,28.8823529 126.039604,28.2745098 126.316832,27.8039216 C126.891089,26.8235294 126.811881,26.1764706 126.118812,26.1764706 C125.405941,26.1764706 125.128713,26.6470588 125.287129,27.5686275 C125.405941,28.2941176 125.386139,28.3333333 125.029703,28.1372549 C124.415842,27.8235294 124.277228,26.6470588 124.752475,26.0196078 C125.287129,25.2941176 126.455446,25.1960784 127.108911,25.8039216 C127.722772,26.372549 127.70297,26.8431373 127.069307,28 C126.772277,28.5686275 126.613861,29.0980392 126.693069,29.3137255 C126.871287,29.8627451 127.742574,30.4901961 128.316832,30.4901961 C129.049505,30.4901961 128.811881,29.8823529 127.920792,29.4509804 C126.950495,29 126.950495,28.627451 127.920792,28.7843137 C129.168317,29 130.09901,30.3137255 129.465347,30.9607843 C129.069307,31.3333333 128.534653,31.3529412 127.485149,30.9803922 Z" id="Shape"></path>
                    <path d="M71.8019802,30.5098039 C70.5346535,29.7254902 69.1881188,27.2941176 69.4455446,26.2745098 C69.6039604,25.6862745 70.3564356,25.3333333 71.1089109,25.5294118 C71.7227723,25.6862745 73.7227723,27.5882353 73.7227723,28.0196078 C73.7227723,28.5098039 73.4059406,28.3921569 72.7920792,27.6862745 C71.980198,26.7254902 71.0891089,26.1372549 70.6930693,26.2941176 C69.980198,26.5686275 70.5346535,28.2941176 71.7029703,29.3921569 C72.4554455,30.0784314 72.9306931,30 72.3564356,29.2745098 C71.7623762,28.5294118 72.2376238,28.2941176 72.8712871,29.0196078 C73.2079208,29.3921569 73.3267327,29.745098 73.2871287,30.1764706 C73.2079208,30.9411765 72.6930693,31.0588235 71.8019802,30.5098039 Z" id="Shape"></path>
                    <path d="M76.8712871,30.4117647 C75.4851485,29.4705882 74.2376238,27.0392157 74.7128713,26.1764706 C75.049505,25.5490196 75.6237624,25.3333333 76.3960396,25.5882353 C77.5049505,25.9411765 79.4851485,28.3333333 78.6930693,28.3333333 C78.5742574,28.3333333 78.2574257,28.0196078 77.960396,27.6470588 C77.3267327,26.8039216 76.2574257,26.1372549 75.8217822,26.2941176 C75.1287129,26.5490196 75.6435644,28.0784314 76.8514851,29.372549 C77.5247525,30.0784314 78.0594059,30.1176471 77.6039604,29.4117647 C77.2079208,28.8235294 77.2079208,28.5294118 77.5643564,28.5294118 C78,28.5294118 78.4950495,29.4705882 78.4356436,30.1568627 C78.3564356,30.9803922 77.8217822,31.0588235 76.8712871,30.4117647 Z" id="Shape"></path>
                    <path d="M90.039604,30.5882353 C88.6534653,30.0196078 87.1485149,27.627451 87.4851485,26.5490196 C87.7227723,25.8431373 88.4356436,25.5294118 89.3267327,25.7843137 C90.1782178,26 92.1386139,27.5882353 92.1386139,28.0588235 C92.1386139,28.4901961 91.980198,28.4117647 90.8910891,27.4313725 C90.039604,26.6862745 89.7821782,26.5490196 89.1881188,26.6078431 C88.3564356,26.6862745 88.0990099,27.2352941 88.8118812,27.4117647 C89.960396,27.7058824 91.4851485,29.5294118 91.2475248,30.2941176 C91.0891089,30.7843137 90.7326733,30.8823529 90.039604,30.5882353 Z M90.5544554,29.7254902 C90.5544554,29.4117647 89.7227723,28.5098039 89.1287129,28.2156863 C88.5544554,27.9215686 88.5544554,27.9215686 88.7920792,28.372549 C89.3069307,29.372549 90.5544554,30.3333333 90.5544554,29.7254902 Z" id="Shape"></path>
                    <path d="M81.7029703,30.254902 C80.6534653,29.0980392 79.2673267,25.9019608 79.6633663,25.5098039 C79.9405941,25.2352941 80.1386139,25.4901961 80.7326733,26.9215686 C81.009901,27.6078431 81.5049505,28.6078431 81.8415842,29.1372549 C82.6930693,30.5098039 82.6138614,31.2352941 81.7029703,30.254902 Z" id="Shape"></path>
                    <path d="M123.544554,30.0392157 C122.871287,29.1764706 121.841584,26.9607843 121.70297,26.0980392 C121.623762,25.5490196 121.663366,25.3921569 121.881188,25.3921569 C122.079208,25.3921569 122.356436,25.8627451 122.633663,26.627451 C122.871287,27.2941176 123.425743,28.4117647 123.841584,29.0980392 C124.534653,30.2745098 124.633663,30.6862745 124.217822,30.6862745 C124.118812,30.6862745 123.821782,30.3921569 123.544554,30.0392157 Z" id="Shape"></path>
                    <path d="M95.6831683,29.6666667 C94.7326733,28.9019608 94.6534653,28.8823529 94.970297,29.3921569 C95.4653465,30.1176471 95.1089109,30.5882353 94.5346535,30 C93.9207921,29.3921569 92.5148515,26.5490196 92.5742574,26.0980392 C92.6732673,25.3921569 93.049505,25.627451 93.9405941,26.9411765 C94.950495,28.4117647 95.4653465,28.7647059 95.009901,27.6666667 C94.5940594,26.6862745 94.6336634,25.3333333 95.0693069,24.9411765 C95.5841584,24.4705882 95.6831683,24.6862745 95.5643564,25.8627451 C95.4455446,26.9607843 95.7425743,27.7254902 96.7722772,29.0980392 C97.3267327,29.8431373 97.4455446,30.4901961 97.009901,30.4901961 C96.8712871,30.4901961 96.2574257,30.1176471 95.6831683,29.6666667 Z" id="Shape"></path>
                    <path d="M31.2475248,26.254902 C27.5445545,25.4509804 23.9207921,22.6470588 22.2772277,19.3137255 C21.8217822,18.3921569 21.3069307,17.1176471 21.1485149,16.4705882 C20.7722772,14.9803922 20.7722772,11.5490196 21.1485149,9.94117647 C22.1782178,5.64705882 25.7623762,1.92156863 30.3564356,0.37254902 C31.2277228,0.0784313725 32.019802,0 34.3168317,0 C36.9306931,0 37.3267327,0.0588235294 38.6336634,0.529411765 C40.7524752,1.29411765 42.1188119,2.15686275 43.8415842,3.8627451 C46.5742574,6.54901961 47.980198,10.2352941 47.7029703,14.0196078 C47.4455446,17.6470588 46.3564356,19.9803922 43.7425743,22.5686275 C41.8415842,24.4313725 40.2376238,25.4313725 38.0792079,26.0784314 C36.5148515,26.5294118 32.970297,26.627451 31.2475248,26.254902 Z M38.2970297,24.8235294 C41.7029703,23.745098 44.7524752,20.7254902 46.019802,17.1568627 C46.4158416,16.0784314 46.4752475,15.4901961 46.4950495,13.3333333 C46.4950495,10.1764706 46.0792079,8.68627451 44.5940594,6.49019608 C42.8712871,3.92156863 40.3168317,2.07843137 37.4653465,1.35294118 C35.6039604,0.862745098 32.4356436,0.921568627 30.6534653,1.47058824 C26.5940594,2.7254902 23.2079208,6.25490196 22.2178218,10.2941176 C21.7623762,12.0588235 21.9009901,15.2156863 22.4950495,17.0196078 C23.7425743,20.8431373 27.2673267,24.1372549 31.1881188,25.1176471 C32.7722772,25.5098039 36.6534653,25.3529412 38.2970297,24.8235294 Z" id="Shape"></path>
                    <path d="M32.4752475,22.5098039 C32.2772277,22.4509804 32.1386139,22.3529412 32.1782178,22.2941176 C33.009901,20.7647059 33.2079208,20.0980392 33.2277228,18.8823529 C33.2277228,17.6470588 33.2475248,17.5686275 33.6237624,17.6666667 C34.2970297,17.8627451 35.1089109,18.8627451 35.1089109,19.5294118 C35.1089109,20.4705882 34.7128713,21.7843137 34.2970297,22.2352941 C33.9207921,22.627451 33.3069307,22.7254902 32.4752475,22.5098039 Z" id="Shape"></path>
                    <path d="M30.6534653,21.627451 C29.009901,20.4509804 28.970297,20.3921569 28.970297,18.4117647 C28.970297,14.372549 30.7722772,8.68627451 33.1485149,5.25490196 C34.1386139,3.8627451 34.1782178,3.82352941 35.9405941,3.82352941 L37.5445545,3.82352941 L37.4059406,4.64705882 C37.1089109,6.45098039 35.8613861,8.33333333 34.970297,8.33333333 C33.8613861,8.33333333 32.5742574,10.7254902 31.8415842,14.1372549 C31.4455446,15.9411765 31.5049505,16.4705882 32.2574257,17.254902 C32.7326733,17.7647059 32.7722772,17.9215686 32.6930693,19.0980392 C32.6138614,20.4901961 32.039604,21.9215686 31.5445545,22 C31.3861386,22.0392157 30.990099,21.8627451 30.6534653,21.627451 Z" id="Shape"></path>
                    <path d="M36.5544554,8.78431373 C36.2970297,8.74509804 36.0990099,8.64705882 36.0990099,8.60784314 C36.0990099,8.54901961 36.3762376,8.11764706 36.6930693,7.62745098 C37.4059406,6.62745098 37.8811881,5.39215686 37.8811881,4.58823529 C37.8811881,3.92156863 37.8811881,3.94117647 38.7524752,4.29411765 C39.5247525,4.60784314 39.7623762,5.11764706 39.5643564,6.03921569 C39.1485149,7.94117647 37.9405941,9.03921569 36.5544554,8.78431373 Z" id="Shape"></path>
                    <path d="M116.633663,20.6666667 C113.544554,20.1764706 110.732673,17.2352941 109.861386,13.6078431 C109.405941,11.7058824 109.465347,9 109.980198,7.60784314 C111.108911,4.62745098 114.49505,3.29411765 118.158416,4.41176471 C121.524752,5.45098039 123.90099,9.49019608 123.920792,14.2156863 C123.920792,15.9411765 123.841584,16.4313725 123.465347,17.2352941 C122.752475,18.7843137 122.138614,19.4509804 120.792079,20.0784314 C119.445545,20.7058824 118.09901,20.9019608 116.633663,20.6666667 Z M118.811881,16.8627451 C120.118812,15.9607843 119.643564,11.3921569 118,8.92156863 C117.544554,8.21568627 116.475248,7.54901961 115.821782,7.54901961 C115.188119,7.54901961 114.514851,8.01960784 114.19802,8.68627451 C113.544554,10.0784314 114.217822,14 115.405941,15.745098 C116.316832,17.0588235 117.821782,17.5490196 118.811881,16.8627451 Z" id="Shape"></path>
                    <path d="M133.128713,20.6078431 C130.673267,20.0784314 128.712871,18.4313725 127.50495,15.9019608 C126.613861,14.0392157 126.316832,12.7058824 126.316832,10.4901961 C126.316832,8.03921569 126.811881,6.74509804 128.178218,5.52941176 C130.554455,3.41176471 134.772277,3.52941176 137.386139,5.80392157 C140.178218,8.23529412 141.584158,14.0980392 140.178218,17.4509804 C139.762376,18.4117647 138.633663,19.6078431 137.663366,20.0980392 C137.089109,20.3921569 134.752475,20.9215686 134.316832,20.8627451 C134.257426,20.8627451 133.722772,20.745098 133.128713,20.6078431 Z M135.742574,16.5490196 L136.356436,15.9607843 L136.237624,13.9607843 C136.09901,11.3921569 135.544554,9.76470588 134.435644,8.62745098 C133.50495,7.64705882 132.792079,7.39215686 131.920792,7.74509804 C131.089109,8.09803922 130.752475,8.8627451 130.752475,10.3921569 C130.752475,15.1372549 133.623762,18.6666667 135.742574,16.5490196 Z" id="Shape"></path>
                    <path d="M56.8118812,19.627451 C56.039604,18.4509804 54.5544554,17.5490196 53.3465347,17.5490196 C51.9207921,17.5490196 51.8217822,17.4509804 51.4653465,15.8627451 C51.2871287,15.0588235 51.1485149,14.3137255 51.1485149,14.2156863 C51.1485149,14.0980392 51.9405941,14.0196078 53.029703,14.0196078 C54.8910891,14.0196078 54.9108911,14.0196078 54.8118812,13.5882353 C54.5544554,12.4705882 52.9306931,4.56862745 52.9306931,4.41176471 C52.9306931,4.29411765 53.9405941,4.21568627 55.3663366,4.21568627 L57.8019802,4.21568627 L59.4455446,12.1176471 C60.3366337,16.4509804 61.1089109,20.1568627 61.1683168,20.3529412 C61.2673267,20.6470588 61.0891089,20.6862745 59.3861386,20.6862745 L57.5049505,20.6862745 L56.8118812,19.627451 Z" id="Shape"></path>
                    <path d="M68.9108911,20.5490196 C68.7920792,20.3529412 65.8019802,11.3333333 65.8019802,11.1764706 C65.8019802,11.1176471 66.7326733,11.0784314 67.8415842,11.0784314 C69.6435644,11.0784314 69.9405941,11.1176471 70.2574257,11.4705882 C70.7326733,11.9803922 72,12.3137255 72.9306931,12.1568627 C74.039604,11.9803922 74.6138614,11.2745098 74.6138614,10.0784314 C74.6138614,9.2745098 74.5148515,9.03921569 73.980198,8.49019608 C73.4455446,7.96078431 73.1683168,7.8627451 72.1782178,7.78431373 C70.7920792,7.68627451 69.8415842,8.07843137 69.6435644,8.82352941 C69.5247525,9.31372549 69.5049505,9.31372549 67.2475248,9.31372549 L64.970297,9.31372549 L65.049505,8.23529412 C65.1881188,6.66666667 65.9405941,5.68627451 67.6633663,4.80392157 C69.009901,4.11764706 69.049505,4.11764706 71.5247525,4.11764706 C74.3762376,4.1372549 75.6237624,4.49019608 77.009901,5.66666667 C79.009901,7.35294118 79.7821782,10.6862745 78.6534653,12.8627451 C77.5643564,15 74.1584158,16.0392157 71.9405941,14.9019608 C71.6237624,14.745098 71.3267327,14.6078431 71.2673267,14.6078431 C71.2277228,14.6078431 71.3267327,15.0588235 71.5049505,15.5882353 L71.8217822,16.5686275 L75.5247525,16.5686275 L79.2277228,16.5686275 L79.5445545,17.9019608 C79.7029703,18.627451 79.9009901,19.5490196 79.960396,19.9607843 L80.0990099,20.6862745 L74.5544554,20.6862745 C71.4851485,20.6862745 68.950495,20.627451 68.9108911,20.5490196 Z" id="Shape"></path>
                    <path d="M96.1980198,20.4901961 C96.0594059,20.2745098 93.1287129,11.3921569 93.1287129,11.1960784 C93.1287129,11.1372549 94.019802,11.0784314 95.1287129,11.0784314 C96.950495,11.0784314 97.1881188,11.1176471 97.7029703,11.5490196 C98.7524752,12.4313725 100.712871,12.3921569 101.564356,11.4509804 C102.059406,10.9019608 102.059406,9.2745098 101.524752,8.70588235 C100.950495,8.05882353 100.158416,7.74509804 99.1881188,7.74509804 C98.039604,7.74509804 97.3267327,8.07843137 96.970297,8.76470588 L96.6732673,9.31372549 L94.4158416,9.31372549 C93.1089109,9.31372549 92.1386139,9.23529412 92.1386139,9.11764706 C92.1386139,9.01960784 92.2376238,8.49019608 92.3564356,7.96078431 C92.6732673,6.47058824 93.5247525,5.47058824 95.0693069,4.74509804 C96.3366337,4.1372549 96.4950495,4.11764706 98.8712871,4.11764706 C101.940594,4.1372549 103.128713,4.52941176 104.613861,5.98039216 C106.950495,8.31372549 107.108911,12.2745098 104.950495,14.1568627 C103.564356,15.3529412 100.851485,15.7058824 99.1881188,14.9019608 C98.8712871,14.745098 98.5940594,14.6078431 98.5544554,14.6078431 C98.5346535,14.6078431 98.6534653,15.0588235 98.8316832,15.5882353 L99.1485149,16.5686275 L102.871287,16.5686275 C104.910891,16.5686275 106.594059,16.6078431 106.594059,16.6470588 C106.594059,16.6862745 106.772277,17.5882353 106.990099,18.627451 C107.207921,19.6666667 107.386139,20.5686275 107.386139,20.6078431 C107.386139,20.7843137 96.3168317,20.6666667 96.1980198,20.4901961 Z" id="Shape"></path>
                    <path d="M82.5346535,12.2156863 C82.4554455,11.9803922 81.8415842,8.78431373 81.8415842,8.60784314 C81.8415842,8.56862745 83.5247525,8.52941176 85.5841584,8.52941176 L89.3069307,8.52941176 L89.7029703,10.4901961 L90.0990099,12.4509804 L86.3564356,12.4509804 C83.5445545,12.4509804 82.5940594,12.3921569 82.5346535,12.2156863 Z" id="Shape"></path>
                </g>
            </g>
        </g>
    </g>
</svg>